<mxfile host="Electron" modified="2023-08-16T13:47:48.664Z" agent="Mozilla/5.0 (Windows NT 10.0; Win64; x64) AppleWebKit/537.36 (KHTML, like Gecko) draw.io/21.6.8 Chrome/114.0.5735.289 Electron/25.5.0 Safari/537.36" version="21.6.8" etag="uTBpzbd1iDbPEBCiufMU" type="device">
  <diagram id="Ht1M8jgEwFfnCIfOTk4-" name="Page-1">
    <mxGraphModel dx="1408" dy="1090" grid="1" gridSize="10" guides="1" tooltips="1" connect="1" arrows="1" fold="1" page="0" pageScale="1" pageWidth="1169" pageHeight="827" math="0" shadow="0">
      <root>
        <mxCell id="0" />
        <mxCell id="1" parent="0" />
        <mxCell id="jlnBKdemnhMmPyVvC5mi-5" value="" style="rounded=0;whiteSpace=wrap;html=1;" vertex="1" parent="1">
          <mxGeometry x="-270" y="-90" width="200" height="410" as="geometry" />
        </mxCell>
        <mxCell id="jlnBKdemnhMmPyVvC5mi-2" value="" style="shape=image;aspect=fixed;image=data:image/png,iVBORw0KGgoAAAANSUhEUgAAAgAAAAIACAYAAAD0eNT6AAAABHNCSVQICAgIfAhkiAAAAAlwSFlzAAAPCQAADwkB4bzL8QAAABl0RVh0U29mdHdhcmUAd3d3Lmlua3NjYXBlLm9yZ5vuPBoAACAASURBVHic7N13fGNXnT/8z9VVlyxZkuvY4/FUT8n0m54QQiCFLIReQttl+bHLwlIDBMJC9smG8LAQ2tIGnh9LJwuEml1gSSHJJCRRMi3Tm8czHvdudV3d54+xJx4X3SvpyPda/rxfLxNZvrr3mJF1vvd7zvkeSdM0EJF4iqLYAYSmfIXn+D4IwAHAPvEl6zzW+/nkYxsAdeIrO/El4nESwNDE1+CUx9OfG41Go/yAIbIoiQEAUX6KotgANAOoh35nPvWryoz2WogKYAQzg4R8QcPpaDQ6aEpriRYZBgBEExRFaQCwZuJr9ZT/rgTgNrFpi80ggCMAjk7/bzQaHTezYUSVhAEALTqKosgAtgC4GsCleKGjX+x37AtBF84FAwcA7ATwWDQa7TC3SUQLEwMAqniKorgBXIJzHf7VAK4AO/tKcgrAY5Nf0Wj0oMntIVoQGABQRVIUZQuANwB4EQAFgMvcFtE86gfwOICHAPw0Go32m9weIktiAEAVQ1EUH4A3A3g3gItNbg5ZQwrA/QB2RKPRR0xuC5GlMACgBU9RlG041+nfCqb2aW6HAXwHwPeZFSBiAEALmKIobwDwMQDbzW4LLSgpAL8E8JloNHrM7MYQmYUBAC04iqIsB/ANADea3RZa0JIA7gHwuWg0mja7MUTzjQEALSiKotyKc2lcr9ltoYpxEMDN0Wj0pNkNIZpPNrMbQGSUoijvB/AjsPMnsdYB2KkoyiazG0I0n5gBoAVBUZR/BvBVs9tBFW0YwMWcF0CLBQMAsjxFUTYDeApcy0/l9xSAq6LRaNbshhCVG4cAyNImqvj9BOz8aX5cCuAOsxtBNB8YAJDV/R8A681uBC0qtyuKUmt2I4jKjQEAWdbEpj0fMrsdtOi4AbzP7EYQlRsDALKy1wJYbnYjaFF6r6IoXG1CFY0BAFnZ281uAC1aEQA3m90IonJiAECWpCiKHed28iMyy3VmN4ConBgAkFUp4MY+ZC4GAFTRGACQVb3E7AbQordKUZSlZjeCqFwYAJBVMQAgK2AWgCoWAwCyHEVRXACuMLsdRGAAQBWMAQBZ0WUAPGY3gggMAKiCMQAgK7rW7AYQTWhUFKXN7EYQlQMDALKitWY3gGiKdWY3gKgcGACQFbWa3QCiKZaZ3QCicmAAQFbUanYDiKZoMbsBROXAAIAsRVEUD4B6s9tBNAUzAFSRGACQ1fBui6yGAQBVJAYAZDWtZjeAaBoGAFSRGACQ1bSa3QCiaWq5NTBVIgYAZDWtZjeAaBYcmqKKwwCArIbpVrIiBgBUcRgAkNXUmd0AolnwfUkVhwEAWU3Y7AYQzYLvS6o4DADIavhBS1YUMrsBRKIxACCr4QctWREDU6o4DADIMhRFsQMImN0OolkwAKCKwwCArKTa7AYQzYGZKao4DADISniXRVbF9yZVHAYAZCX8kCWr4nuTKg4DALISplnJqvjepIrDAICshHdZZFV8b1LFYQBAVsK7LLIqu6IofrMbQSQSAwCyEq4CICvj+5MqCgMAshJ+wJKV8f1JFYUBAFkJP2DJyvj+pIrCAICshB+wZGV8f1JFYQBAVsJJgGRlfH9SRWEAQFbCOyyyMr4/qaIwACAr4QcsWRnfn1RRGACQlfADlqyM70+qKAwAyBIURZEABM1uB1EeDACoojAAIKuoBiCb3QiiPGrMbgCRSAwAyCqWmN0AIh18j1JFYQBAVtFodgOIdPA9ShWFAQBZBe+uyOrqFUXhZyZVDL6ZySoYAJDV2QHUmd0IIlEYAJBVML1KCwHfp1QxGACQVTADQAsB36dUMRgAkFXwzooWAr5PqWIwACCr4J0VLQR8n1LFYABAVsE7K1oIGABQxWAAQKZTFKUWgNvsdhAZsNTsBhCJwgCArGCz2Q0gMmiL2Q0gEoUBAFnBVrMbQGTQEkVR6s1uBJEIDADIChgA0EKyzewGEInAAICsgB+otJDw/UoVgQEAmUpRFB+A1Wa3g6gADACoIjAAILNtBt+HtLAwAKCKwA9eMhvH/2mhaVUUJWx2I4hKxQCAzMYAgBYivm9pwWMAQGZjOpUWIr5vacFjAECmmUijXmR2O4iK8GKzG0BUKgYAZKY3AnCY3QiiIlyvKEqN2Y0gKgUDADLTW81uAFGR7DgXwBItWAwAyBSKoqwAcIXZ7SAqAQNYWtAYAJBZ+OFJC91liqKsNLsRRMViAEBmYQBAleAtZjeAqFgMAGjeKYpyKVj+lyoDAwBasBgAkBl490+VYo2iKBeb3QiiYjAAoHmlKIoDwJvMbgeRQAxoaUFiAEDz7R8BcP00VZJ3KopSa3YjiArFAIDmjaIo1QA+Y3Y7iATzA/iE2Y0gKhQDAJpPnwQQMbsRRGXwHkVRms1uBFEhGADQvFAUpRXA+81uB1GZuAF82uxGEBWCAQDNl88BcJndCKIy+jtFUbi8lRYMBgBUdhPr/lk3nSqdHcC/mt0IIqMYANB8+KLZDSCaJ29SFGW72Y0gMoIBAJWVoiivA3Cl2e0gmicSgG8pisLPVrI8vkmpbCaW/X3J7HYQzTMFwD+Z3QgiPQwAqJy+CYBLo2gx+jdFURrNbgRRPgwAqCwURbkVLPlLi1cQwL1mN4IoH0nTNLPbQBVGUZQWAHtx7kOQaDG7PhqN/q/ZjSCaDQMAEmpi8tODAF5sclOIrOAYgI3RaDRpdkOIpuMQAIn2EbDzJ5q0CsCnzG4E0WyYASBhFEXZDOBpAE6z20JkITkAN0Sj0T+b3RCiqRgAkBCKongBPAXgomLPkcvlMP39KElSiS0jKs5s70WbreikaS+AbdFotLPUdhGJwgCASqYoigzgfgCvNHL8ZEcvyzIcDgdcLhc8Hg9kWS5vQ4lKlE6nkUgkkE6nkclkkMvlYLfbjb58J4AXR6PRbBmbSGSY4XcuUR5fQZ7Of7LDdzgc8Pl88Pl889g0InGcTieczgtHuFRVxdjYGBKJBHK5XL5A9kqc2xTrtjI3k8gQZgCoJIqifBTA56c/r2kacrkcPB4PQqEQU/m0aCSTSQwPD0NV1bmCgVdHo9Ffz3e7iKZjAEBFUxTlDQB+hnP1zwGcuxtyOBwIhUJwOBzmNY7IAsbGxjA2NgZJkqYGwSMAtkej0eMmNo2IAQAVR1GUqwD8GYALOJfmdzgcqKmp4d0+0TSpVAoDAwNTA4HdAF4UjUbHTG4aLWIMAKhgiqK0AXgCQFjTNEiShNraWk7iI9IRj8cxNDQ0+bcSBXBjNBodMLlZtEgxAKCCTGxwshPA8lwuh9raWqb6iQo0OjqKsbExyLJ8EMDLuDyQzMAAgAxTFGUFgP9VVXVFJBKB2+02u0lEC9rQ0BDi8XifLMuXc04AzTcGAGSIoigXqar6WHV1dbXIZXySJCEYDCIYDMLpdMLhcJRSbIWoLLLZLNLpNJLJJAYHB5FMiivtr2ka+vv71VQqdd3u3bv/IuzERDoYAJAuRVEuVVX1kYaGBreocX6bzYZly5ahoaGhkEIqRJYQj8fR3t6OgQFxw/fj4+Pa4ODgu/fu3ftdYSclyoMBAOW1ffv26yVJ+p+GhgZht+WBQABr1qyBx+MRdUoiU/T09ODEiRPIZsUU90un0+ju7v763r173yfkhER5MACgOW3duvWdHo/nu+FwWMi6PpvNhtbWVjQ1NYk4HZElpNNpHD16FIODg0LOl8vl0NXVtUuWZSUajeaEnJRoFgwAaFZbtmy5u7q6+pN+v1/YOTds2IBwOCzsfERW8vzzz2NoaEjY+Xp6ekZVVV373HPPdQk7KdEUnG1FM2zevPkXdXV1Qjv/+vp6dv5U0dasWSN0Pkt9fX3A4/Gc2bJly8uFnZRoCgYAdIGtW7fuampqeu30DU9K4fV6sXLlSmHnI7Iip9OJtrY2oecMhUK2UCj0wKZNm/5J6ImJwCEAmqAoipTNZp9pbm7eLuqcNpsNgUAAq1at4oQ/WjTOnj2Ls2fPIpFICDtnPB7HwMDAG/fs2fNfwk5Kix7XXxEAIJvN/rGxsVFI5y9JEvx+P6qqquD3+0vq/DVNEzbDmsgISZIgy3LRe1rU19cjnU4jk8lgdHQU8Xi85DZ5vV6k0+mfbd++ffDZZ5/9c8knJAIzAARg69atn49EIh8VUdnP6/UiEAicHwutra1FvrkEmUwGHR0dOHbsGAYHBzE+Po54PI5kMolUKoVUKoVcjhOhaX7Z7Xa4XC643W643W74fD4EAgHU19dj/fr1qK6uzluwqqur63yxoGQyiaGhIaiqWnK7enp6cpqmXRuNRh8t+WS06DEAWOS2bdv2Op/P9/NgMFjSeZxOJ6qrqzF97sCyZcsu+KDUNA2xWAz79u3D888/j+7u7lnvkGw2G5xOJ1wuFwsF0bzSNA2ZTAapVArpdHrGzyVJQigUwtKlS7Ft2za0trbOeN8PDw9fsCJA0zSMjIxgfHy85PZ1dnYmZVleHY1Gz5R8MlrUGAAsYoqibJRleXdtbW1Jk0G9Xi9CodCMlKksy2hpaQFwbq30008/jb1796K3txepVOr8MZFIBJFIBB6P53ynzw2GyAo0TUM6nT6fjRofH0dfXx9GR0fPHxMIBNDc3IyrrroKra2tkCQJsVgMvb29M86XTqcxODhY0rCWpmno7Oxst9vtbdFodGaEQmQQA4BFSlEUfy6X616yZElJhf2DwSCqqqpm/ZnT6UQ4HMauXbvwxBNPnC+b6nQ6UVNTg7q6OoTDYdb+pwUnlUqht7cXfX19GBoagqZpkGUZra2tuO6661BXVzdrAACcK/QzMDBwPgguRiaTQU9Pz6927979mqJPQoseA4BFasuWLU80NTVdXuxEJ5vNhnA4nHdHwP7+fjz55JPo7u6GpmmIRCJYvnw5gsFg0ROsiKxmojPGyZMnkUql4HQ6sWLFClx55ZWYa+8MTdMwODhY0kqBWCyG4eHh9+3atevrRZ+EFjUGAIvQpk2b/qGxsfFbxabZ7XY7IpHInGn6ZDKJRx55BB0dHQBwfikgCwFRJcvlcujo6EB7ezuy2SxkWcbll1+O9evXz/makZERjI2NFX3NgYEBLZPJLIlGo91Fn4QWLQYAi4yiKB673T5SU1NTVO8/mb6fK23f09OD3//+9+dnPG/cuBH19fXFN5hogclkMjhw4AD6+voAnFsWePPNN885mXV8fBzDw8NFX+/MmTPR3bt3X1z0CWjR4uDrIpPJZH4WiUSK6vwnJ+zN1fkfPHgQv/nNby5Y7uT1eotrKNEC5XA44PO9MLWmp6cHP/7xjzEyMjLr8X6/H4FAoOjrBYNBZfv27VcUfQJatBgALCKKojT5/f5XFDP+LkkSIpHInGOaf/nLX/DYY4/NeH7yLohoMZk+ATCVSuHnP/85Ojs7Zz0+EAgUHSxXVVVBVdVfKYrCiTVUEAYAi0g2m/1FKBQq6kMiFArNWOs8cU788pe/xOHDh2d9XXd3Nwv50KIyPDw8a22LXC6HBx54APv375/1dXP9jRkRiUTqNE37h6JeTIsWA4BFYvv27Suqq6svK+a1c92d5HI53HfffeeX980mHo/jxIkTxVyWaMHJ5XI4cOBA3mN27tyJ3bt3z3heL8uWj8fjgaZpX1AUhZ/pZBjfLIuEqqq/L2Z7X4/HM+f45AMPPIBYLKZ7jlOnTs05/klUSY4dO2ao9v/TTz89a2A8Oc+mGDU1NT5VVd9R1ItpUWIAsAhs2bJldSQSWVfo6+x2+5xL9/7617+iq6vL0Hk0TcP+/fs5FEAVbXh4GKdPnzZ8/IMPPjjr7H+n0zlnca18nE4nZFn+UsEvpEWLAcAiYLPZfl3MjnyBQGDWgj3Hjx/H3r17CzpXPB7HwYMHGQRQRYrH49i/fz8KWVataRp+/etfI5PJzPhZIBAoaiigtrY2uGnTptcX/EJalBgAVLi1a9dW19bWzl2JZA4Oh2PWcf+BgQE89NBDRbWlq6sLTz311AV11IkWutOnT+Opp54qqqpfOp3Gb37zmxnPS5KEYjbokmUZbrf7WwW/kBYlBgAVzuVyFVXxr7q6esZzmqbhd7/7XUF3OdPFYjE888wzOH78eEnnITJbMpnEc889h8OHD5e01e/g4CCeeuqpGc97vV64XK6CzxcKhcKbNm1qLLpBtGgwAKhwfr//lYW+xu12z/rBE41GZ90etVCapuHkyZN46qmn0NHRUVI9dKL5pGkahoaGcOTIETz55JMYHBwUct69e/cimUzOeH62QFyPw+GAzWb7hoh2UWXjRusVbN26dZtWrFhR8OD/bKnHTCaDPXv2CGnXpPHxcRw5cgRHjhyB0+k8H3hwd0Cymmw2i2QyiWQyWdLd/lw0TcOjjz6K66+//oLnJ4fijKwsmMrr9V6vfxQtdgwAKpjb7f5qoVX/vF7vrJv87Ny5s6wT+NLptJDsAtFC1d7ejrGxsRkrAHw+X8EBQHV1tXfdunWrDx48eFRkG6my8Fargvn9/oIL/8y2/Cgej+PoUX6OEJXbbBNsXS7XnBsJzcVms8Hlct0rql1UmRgAVKi1a9fWVFVVFTSDyG63z3r3//DDD3PCHtE86OnpmXX/jGKKeLnd7qtFtIkqFwOACuVwOP650LH02WoFpFKpOTcwISLxnnjiiRnPeb3eWWty5FNVVVX8FoO0KDAAqFAul+tNhb7G7XbPeG6uTX6IqDx6e3tnZNxsNtusAXo+LpdLWr9+/c0i20aVhQFAhfL5fK2FHD8xZjjjeY79E80vTdPQ3t5+wXPZbBZNTU0Fn8vlcr1HULOoAjEAqEBtbW1+v99f0L6is91d5HI5Yeucici4gwcPnn+sqiqWL18+574c+bhcrotFtosqCwOACiTL8nWFjhfOFgCcPHmSk/+ITDC50ZaqqmhtbYXdbofT6Zy1PHc+LpcrVI72UWVgAFCB7Hb7dYUcL0nSrOn/Q4cOCWsTERmnqio6OzvPd/6TCt0fwOPxFF4HnBYNBgAVyOFwFLT+X5blWWcYd3d3C2sTERXm7NmzM9b/FxoA2O12rFu37iKR7aLKwQCgAjkcjuWFHD/btqOqqpal5CkRGdPb2zvjuSJ3CHyJiPZQ5WEAUIGcTmdB639nCwDGxsaEtYeICjc+Pj7jOafTWXA9ALvdrohqE1UWBgAVSJ6tR89//IznRkZGhLWHiAo31y6ZTmdBC3wgSVKDiPZQ5WEAUIFkWS7o33W2ioGjo6PC2kNEhctkMrM+P1u57nxsNhtXAtCsGABUIFmWC8oRcgiAyHo0TUMymZzxfKEZAJvNxpLANCsGABWowBGAWY+fbfyRiObXbBsDFTEE4BPVHqosDAAqTFtbm7vQTYAYABBZU39//4znihgCYC0AmhUDgAojSdLMHX30XzPjuVwuJ6Q9RFS8dDo947lCA3xJkmaOIxCBAQAREdGixACAiIhoEWIAQEREtAgxACAiIlqEGAAQEREtQgwAiIiIFiEGAERERIsQAwAiIqJFiAEAERHRIsQAgIiIaBFiAEBERLQIMQAgIiJahBgAEBERLUIMAIiIiBYhBgBERESLEAMAIiKiRchudgOIyBgJgFOW4ZHtcNlkyJIEWbJN/FeCz27DlSEP1vtdWOt3otktI6FqiKs5jKsaYmoO49kcYmoOY1kV49kc+tJZHB5P4MB4Ej3JtNm/IpVBdXV1zXve8x5t6nPNzc05SZLOf69pmpbNZkdUVW1XVXVPJpO56/Of//zJeW8szSsGAEQWI0sSPLIdbtkOtyxP+a8MCdKsr9lc5cSHWqtQ75KLvu54NoeOZBYn4xkcj6dwZDyJg2NJ7BuLIafpv56syWazSaqqXvCcLMu2qQEAANjt9jCAMIBtqqq+44477vjS3Xfffdv8tZTmGwMAIpPZJAl+uwMBhxMBhxNeu2OObn4mCcC7l/pxS73X8Gvm4rfbsN7vxHq/E4Dv/PPjqoZnR5LYORjDg32j2DMaK/FKZHWyLNsCgcBH7rzzztfceeedK8xuD5UHAwCieSYB8E3p8P12B6bfjRn18loPXlXvFdvAafyyhGvCHlwT9uCTq2owmMkhOpzEo4PjeLBvBEdjybJen8zj8XiW33HHHd+9++6732V2W0g8TgIkmidVDidafQFsDddhXTCMJq8fVQ5n0Z1/vUvG3y+tAkq+9y9M2GHD9bVe/FtbHZ68ajWiL1qHO9Y0YZnXPa/toPnh9/vfefvtt19kdjtIPGYAiMrILcuIuDyIuNxw2Yofn5/Nu5qr4LHZAGh4IQiY/8H6Vo8dH1oexgeXh/HsSAq/6BrGfZ0DGMuq+i8my7PZbJLD4fgqgJeY3RYSiwEAkWB2yYawy42Iyw2/3VG262zwuyYeTe38p2YD5jcYkAAoQReUYD3+dU0dHh6I477OITzQO8RJhAucLMurzW4DiccAgEgQp01Gg8eLWpcHtiLT+kbVOmWEHFNH8Gbr/M3LCrhsEm6s9eHGWh/OJBvwzVOD+N6pXqQ1RgILkd1urzO7DSQe5wAQlcgly2j1BbApFEG921v2zh8AVnodgCSd+wJwrrOf/MIcj+d3rsCkZrcdd7fVYfeL1+FDKxvhkfmxs9DY7Xbn7bff7jS7HSQW/xKJiuSR7VjhD2JjdQ1q3Z451+iXw2g2h/Md+mQgMCMYmPp4tp/NrzqnjDtW1WDvNevwidVNqLKLnRNB5TMxUbW8y01o3jEAICqQR7ZjVVU1LqqOIOJym9KdHo9nJsbVp3XwCyArEHLY8JEVYey9Zi3+ta0ZXpmBAJEZGAAQGWSTJDR7/dhQHUHI6dJ/QRmlcho6klloc3XwCyArUGW34b2tITx9dRtesyQ879cnWuwYABAZEHK6sLE6gkaPz6QE+kwPDyQASNAAaJAmggFgoWUFGlwydmxswq8uXoUVrCVANG8YABDl4bLJWF1VjVVV1XAKXsdfql90j+JILI2pnfYLgYCorMD8BQNXhz147MpV+HRbE1w2fjQRlRv/yohmIUkSlnh8uKg6gmqT0/1zyWnAvScHkTm/su6FTltMVmD+hwhcNgnvbw3jyavacENd9bxck2ixYgBANI1blrE+cK5U73ws6StFRyKDDx3owcl4FnN12nNnBaZkBCw2RNDisePHW5fiqxuXMRtAVCb8yyKaIuxyY30wAq994dTIOhFP4wMHuvGzs6NTlgfO7LQvzAosjImDty4J4MHLV2O1j3MDiERbOJ9yRGVkkyS0eKtQ6/aY3RTDcpqGVE6FqmlQNQ1fOdmNe09oaHDZ0eZ3Y6XXCb9dhl+2wSfb4JVt8Nlt8Mg2BOw21DvtkCVg1iqCk0GApldhcPrPxFvrd+LPl6/Cxw524b7OgbJcg2gxYgBAi55btmNlVRBe2Zp/DumcioSqIqlmkTz/3yzSudysx58cB5400E+6bDa0+b1YW+VBm9+DlT4XlnucWOF1wiNLuCAQAKYFA/NbetgnS/j6RUtwddiPj+w/jdQcvzsRGWfNTzyieRJxudHqC1hqrD+VUzGWSWM0k8ZYJoN0rjy76qVyOewdHcfe0fELnrdLEi4NBXBtbQBXhPzYHHDDZYMlsgJvWhLA1uAa/N3uUzgynhB6bqLFhgEALVpNXj+WeHxmNwM5TcNwJoWRdBpjmTRSZerwjcpqGnYOjmDn4AiAczPzr4wE8ZKaIF5W68dK75SS8CZkBdp8Dvzh0hV4+67TeHxwVNh5iRYbBgC06EgAlvkCpo/3j2XS6E8lMZROQrXwLnmpnIaH+obxUN8wPnUQ2F5dhbctrcHNdVUIOSZqI8xzViBgt+Fn21vwnn2d+F33UMnnI1qMGADQoiJJElb6g6aV8k2pKvpTCQykkqbf6Rfr2eExPDs8ho9IEm6uD+PNzWFcE/bBaZttiKB8WQG3TcJ3NjXjdqcd/9nRV9K5iBYjBgC0aMiShNVV1ahyzP+uprFsBl2JGIbSqXm/drmomobfdg/gt90DqHc58aGVjXhzUzV8k9v9zkNWwC4B/76uATUOO75wvKuocxAtVqwDQIuCw2bD2kB43jv/sUwaR0aHcGBksKI6/+l6UmncfuAUNj2yH185OYDhTG7e6gpIAG5fVYPPrV9awm9AtPgwAKCK57TJWBcIz2txn9FMGodGh3BodAgjmfS8XddsI5ks7jrcgU1/eR53H+1FX3piud48VBt819Jq7NjcapnNmqxM07Rivqw7UYWKwiEAqmh2yYa2QDVc87TnfCqnoiM2huEy3+073XZ4fHZ4fA44PXbIsgS3R8b6i6qwfKUPy1d4UFfvQiqZQyKhIhFXkUioiMdUjI1mcLo9jhNHx3H04ChGh8UHKPGsii8d78SOU934dNtSvKM5BLuEstcVeE1DFcazLfjw/o5Sml9RcrlcdvpzJ0+eLOZUlZvCWqQYAFDFskkS1gSq4Z6HAj8aNHQn4jibiCEn+EbJF3AiGHHDX+2Cx+eA2+eALF94n9vS4sZb39qAhobChzhGR7M425nC6VNxPPf0EB57sAfdnWLW2MeyKj6+vx0/Ot2Hezcsw9bgZEnf8lUbfHtzEH3pJtxztLPU5hNVNAYAVJEkAKuqquGzO8p+rdFMGqdiY0iqM260iuLxORCscSMY8SAYdsPuzD9Sd9NNEdxwQxg2W3HJ70DAjkDAjrXrfHjZjbX4+KfX4OzZFPbuGsFTOwfw+J97MDRYWpZg32gML3vyAP6upQGfXF3/wvLBMlUb/MiKMPrTWXznVE9J7SaqZAwAqCKt8AcRLPOEv5ym4VRsFP2pZMnncrhk1C7xoa7ZD2+V8XZfckkAN90UKfn60y1Z4sKSJXW48eY6qHetxXPRUTzwq7P44286kckUX4b3ex3d+E1XP768cQVeXudHOfcguLutDgOZDO4/O1h0e4kqGQMAqjjLfFUIu8q7e1w8m8Xx8WEk1eLX8ttsEsL1XtQ2+1Fd40Gh1YiDQTte+9q6oq9vlCxLuPjSIC6+IMeS1QAAIABJREFUNIjbPrUGjz0ygF/fdwbPPtlf1PkGM1m8/bkjeHdrIz69phFu28S+A1M7eAFZAZsEfG3DEgyls3i4nxUDiabjKgCqKEs8PtS5vWW9Rl8ygYOjg0V3/rLdhuaVQWx/STPWbK1FqLbwzh8AbrmlBh7P/P4J+/0ybvqbOnz7h9vwsz9chRtuaSr6XDvau3DzU0fQnshM2aYYmLESoIQVBC6bhO9tacGWoPkln4mshgEAVYygw4Umr79s51c1DcfHR9AeGy1qop/daUPLmmpsv7YZLW0hOJylrUxYvbq8gY6eVau8uPuLG3D/gy/CLW9qKSqI2TMyjmt27scDvWMAMCUQmKWDL7KugF+W8J9bWhB0zM9KEKKFggEAVQSnzYYVVYGynT+lqjgwMoDBIsb7ZbsNy9aGsP3aZjSvqobdUfqfXSBgRzBojRG8lmVu/Mu/rcVvH70Gr3pzS8Gvj2VV/O1zR/CZw11QtXMdtwYIzQo0ux345sbWwn85ogrGAIAWPAnnJv3ZpfK8nePZTNEp/5olPmy9pglNK4KQZXHtW7rUnL0M8mlsdOFTd63F9+6/HKvWFh6MfePkWfzTvlNI5ybH9c914qKyAtfX+vDe5Q1F/GZElYkBAC14TV5/2Ur8Tlb0y+QKm/nu8Tmw4dIGrNlSC6dLfOo5lSp+Jn65bdxUhR/+6lLcducGuN2F/e73n+3DW547jnF1cojlhU5cRFbgjlW12B4s3zAR0ULCAIAWtKDDiUZPeSZ4DaWTODI6XNBWvZIkoWVNNbZcvQTBSPlWIpw+nYKVC7M6HBLe9NYm3P/g1bj6pfUFvfaR/mG8+unDGEjnMFdqv9isgNNmw3e3LEOVnfMBiBgA0ILlsNmwwh8sy7l7kwkcGxuBVkAZWpfbjosua0DzqmpIRRblMSqVyqG31/p7DNTVO3HvNzfjtjs3wCYb//9k98g4Xv7UQZxJThZXmj21X0xWYKnbgW9uWl7Kr0VUERgA0IK1wh+E3Sb+LdyfSuBUrLB146E6DzZfvQRVofkbm9+1a2zerlUKSQLe9NYm/Of9l6OhyWP4dSdiCbzq6UPoTaswMtu/kKzAjbV+vGtZYZkJokrDAIAWpIjLjUAZxv2H0ym0jxvv/CVJwrK1IaxT6oXM7i/EH/84iLNnF87+LOs3+PGT312Oa280PhHvVDyBN0aPYDQ7dTgg/4Q/o1mBT6yqR42z/KWiiayKAQAtOLIkYam3Svh5xzJpHB8fMZz0l+02rL+kHk0ryjMMoUdVNfz4x93I5Sw8GWCaQMCOz39tE979wTWGX/P86DjevusYkjnAWAEgI1kBCUGHjM+uL3zZIlGlYABAC06z1w+H4NR/Qs3i6Niw4QI/DpeMiy5rKOtEPyNOn07ha187g/7+jKntKIQkAe9+XyvuuGej4dfsHBjGe/aeQFa7cIlgcVmBF37+6oYgroqUr34EkZUxAKAFxWd3CC/1m8qpODw6ZHi2v8fnwMbLG+ELlHezIaOOH0/gc587hcceG0Y2u3CyAa9+fSO++J3tsNuNfQz9vrsftx88Da2ossAzgwFAggTg8+tbYC+mjCHRAmeNUmJEBi3ziU39a9BwfGzE8Dp/f7UL65S6ksv4ipZO5/DTn3TjR9/vRF2tAy0tbixd6kak1olwjROhkAPBgB2y3Vod3TXXRvDtn12KD/ztMxgf199O+fsdXdgc9ONtzVN2QJyxc+BUc28epE08Xu1z4Z9XLMGXjncW90ssHgsnuiRDGADQglHn9sBnFztpqyM2jljWWPrcF3BiwyX1kA3esZaFBowNpzDUG0cynkU6qSKdOvdfvbkAkgREal1obPahfokb9Y1urN0QwKVXhBAOmzcZbvOWKnzjx5fgXW94CumUfrXF258/hm1BHzZUeXDhFsKT/zPZ4RvfUvgDK+rwX2f70ZlYOJMq51nvjh07+H9OhWEAQAuCXbIJ3+hnKJ1CbzJu6Fi31471F5vT+edyGob7ExjqiWOwJ4FMurhdCDUN6O9Nob83hX3PXfizLZeEcf3fNOLyqyNYunT+5zWs3+DHF3dsw/v/9hndAkdpTcPfPXcYD125Cf6p/x7SlE59RlYgf2Dgk2Xcs64Vb3/ucIm/ScXab3YDSDwGALQg1Hu8Qmv9p1QVJ8dHDB3rcMpYf3E9HGUo6TuXbCaHod44BnriGOlLQFXLm33d/fQgdj89CABoXenHDbcswVUvrkHbWj/KUGphVpdfGcKdX9iMz3xkj+6xJ+MJ3La/Hd/avHLimWkdfBFZgRvrqrC+yosDY8aCwkXmebMbQOJxEiBZnixJqBc48U/DuW19jUz6k2UJ6y6ug9s3PynybCaHU4eGEH3wNI7u6cdgd7zsnf907cfH8e17j+Btr3wCt77yr3jqr8Pzdu2bb6nH+z6+1tCxvzzbgx+d6Z/4bo4JgBIM7RFw7pGEj65qLvl3qFAPmN0AEo8BAFlendsLWeAs7c54zPC4/+qttfAHy1/dL5fTcPbECJ575Aw6T4xYZm3/sUOjeO9bn8Z73rELhw/H5uWa73hXC1596zJDx378+aM4lUjD0LLA84HA3KsGbqwLYoXPeLXCReJnO3bs+KPZjSDxGACQpdkkCQ0C7/6TahbdCWMp3qYVQYTrxC45nEED+jrHsesvnWg/NIRsxpq7/D2zsw9vuXknPvPxA+juKu9cMEkCPvLJ1Ya2FE5rGm4/cHLylZiz8zeYFbBLEm5jFmCqAQDvN7sRVB4MAMjSal0eofX+T8XGDG3wEwi50dJWLey6sxnqS2D342dxdE8/Ugn9JXBW8MAvz+CV1z6Kr33xOEZHy9dmt9uGz39jC9we/XkXf+4dwH/3DqPwmgCYNStwS30IzZ7529PBwh4FcMWOHTv6zG4IlQcDALIsSZKEbvU7kEpiNKO/g57DKWPN1lpIZSoOo2kaTjw/gIPP9CA+Zv0d/abLZTV8/5vH8ZqX7sTz+8q3IVFLixt3fmGToWNv338M4+pk9qTwSoFTswJOm4QPr1wq4ldYiFIAdgH4BwAv3rFjxxGT20NlxFUAZFk1Lrewkr+qpuF03FhntXpzDZzu8sz4z6ZzOLyrFyMDSSHnkx12yC4X7E4n7G43GlavwpK1a9Gweg2q6+sRHxnBWH8/Rvv6MNrbi9GeHgx3dWPw9GlkkqW1YXgwhXe+/q/4zOc34eZXlmdnvZfeUIvXvb0Vv/hBe97jupIpfPl4Jz61ZrK2f2HLAKevIHh9UwT3HOlAX3rhBWjTxWKxGIAvT3v6IC4s7JMGcAjAkR07diyMdBSVjAEAWVaDW9zd/5n4uKFqfw0tVaiuLc8ksPh4BoeiPUjGS/t8dVX54auJwFdbA1fVudoIgZpaXP2mW1G/fIWhc6iZDDqe34eDjzyCvX/4A0Z7eotqSy6r4TMf3oMjB1fg/bethCyLz5p84KOr8PiDPejuTOQ97msnTuH1S+rQ5nej6M5/4rHbJuEfly/BXYfbS/8FTJbJZNI7duz4tNntIOthAECW5Lc74JbF3IWncir6DBT8cThltLSFhFxzuqHeOI7s7oeaLWKSnyTBUx2Er7YG/toI7O4LC/VsuPoaKDe/ArLD+FJF2eHA8q3bsHzrNtz0wQ+h6+hRHH78Uez97z+g59ixgpv44++cwPHDY/jslzciEBD7seLx2HD7XRvwwXdG8x6X04B7jp7C97aundLFF1cZENDwqsZIRQQARHPhHACypIhL3F14VyJmqIj5srUh2B3i/yQ6j4/g4LO9RXX+/rpaLLv8YjRt24zqpU0zOv/WjZtx6ateU1DnP50kSViyZg2ufee78IFf/ALv3PFt1K9eXfB5/vpoH97xmqfRcUrM8MZUV70ojKtfqj/M8EB3L47EkhM7/wFFzQeY+L7F48Ll4fJOBCUyEwMAshxJkhB2iZmFnc7l0J/S75CqQi7UNYstNQwAJw8M4tThoYK3UfFUB9F88VY0bFwPh2f2YMjl8+Hy175eQCsvtOqSS/HPP/sZ3vC5exCoryvotafbx/HWW57AkSPiawZ89NNr4TAQoH3lxOnzk/omAwGtwM5/8vGtzeWZ20BkBQwAyHKqHS5hZX+7EzFoOhX/JAlYeVEk7zFFXbtjDF3towW9xunzonHzRWjavgXuQP518MrLXwFPldjdESfZZBlbbrwJH/nNb3HTbR+Bc44gZDbx8Sw+8M7nMDBgrNiSUUuWuPAPH16je9wvznThVHyiONCU2f3FZAVuqgvBwa2CqUIxACDLqXGJ2Ywmm8uhL5V/4hgA1Db54a1yCrnmpJGBJE7uHyzoNeHly9ByqQJfjbFgpKmtrZimFcThduPqt74Ntz3wAJZfcrHh1/V1J3Dbe/YgnRZb2OhNb2tGKJz/30oD8I2TZ3Bh5y4VlRUIOux4RWNhWRCihYIBAFmK3WZD0Ckm/d+djCOnV+9fAppXBoVcb1IynsXhXb26mYfzTZBtaNi4HuEVrVOq0+Xn9vvhD4VLaGVh/OEw3vn1b+CSN77B8Gv2PTeIe+48rLu7XyHcbhv+7n2rdI/7YccZdCUnSwRP6+ALzAq8oYkBAFUmBgBkKRGnGyISrhqAvqT+3X9No0/oRj9qNodD0R5kDd752l0uNG/fCn9dbUHXqWme/0I1ssOBV33ik7jlXz5luEjS7/7rNH76gzNC23HLaxvhr8r/b5bVNNzX2YPZO/XCsgJXh4MIObhgiioPAwCylLCg9P9wOoWspt8JC73714Aju/sQHzc29u0OBLD0km3n1/IXQs2qBb9GlEtf+zr8/f/3XbgNzj+4964DePKJIWHX9/lkvOOfVuoe94OOzml393kmAObJCjhtEl61hJMBqfIwACDLsEkSfHYxd+MDBsb+w/VeoWP/HUeGMNSrf10A8NVE0LR9M2RncdcfOHMaQnPrBVqxbTve+9Ofwhc2Ngzxsfc8h44OccsDX/vGJbr7BJxJJPDM8BiMzf6fJSsgvZAVeFGkPPUhiMzEAIAso8ruEJL+z2o5DBso4dq0Qtzdf2I8g84TI4aOdfp9qL9oHaQSyhynkwmMDvQX/XoRIs3NeMd/fA2yXT89noip+Pf/55CwawcCdrzxb5frHveLzm4UuvTvgscTWYGLq/V3JiRaaBgAkGVUOcTcjQ+mkro7/rl9DlSFxO34durwkKEbctnhQOOmi2ATUOXw1L69JZ+jVM3rN+C1/3aXoWOffKQXz0aNBUlG3PTKBt1jft7ZhYSaQ3EFgV74qnM7sKZKXGlqIitgAECWERAUABgp/FPXJO7DfGwohcEe/VLDkiRNFPYRM89h15/+gDGTswAAsOXGm/Civ3+noWO/dPchGNiSwZBVq71YtTb/nXksm8WD/YMothrg1Mcvra0R03Aii2AAQJYgSxK8Asb/UzkVsaz+JLzaJnFV/9oPGVvvX9u2Gp6QuNKy2XQaj/3sJ6bOBZh0/T+9F23XvEj3uEP7RvDwg+KCltfcqr8a4v7O7olHxXf+gISrOA+AKgwDALKEKodTyPj/aEZ/7D8YccPlEbOsa7AnjrGhlO5xgaZGBJoahVxzqu4Tx/Hg9/8vEmPGtjouF5ss442f/SxCTU26x37lnkPCCgRdd0OdbumEh/v7cW7/xeI7f0DCxdVVQt6jRFbBAIAsQVT6f8xAACDq7l/Tzo3967HZ7YisNLZNbzFO7duL+//9Hhx/7llTswFunx8v/9hHdY872xHH737VI+SakYgDV74k/xK9WDaL/aOxiQl9mCi2VPiQQNDhwJZqsUWjiMzE6hZkCX5By/+MBAChOjE7DfaeGUPCwJr/UGsL5DIXkknFYvjLj36Ax37yI4QblyDS3IxI81L4w2H4QiH4gtUF1fMv1voXXYPmTRtxZu++vMd9/d8P44ab6+D3lz4Z8rqbGvD4g/kDiicHh7A5WIUXZvdPbP97Pl4ytm3wNTUR7BoWN5GRyEwMAMgSPHLpb8WkqiKtM8PMF3DC4Sy90wGAsyf0N/qxu12oXqqfFi9WTlWRGBzCeF8/4v2DUDNzByQtWzZj88tfjjVXXolIU3NZ2iNJEm6+7TZ8++3vyHvc6HAa//s/vXj160sfFtm8Tf+u/JH+Afzj8mUT303p4KUp32vTfjb9WGhY4+dKAKocDADIdE6bDJuAHdeM3P0HI2Jm4CdiGSRi+nf/kRXLS1rvPxctl8PImbMYPHkKuWzW0Gs6du9Bx+49AIA1V12JGz/4ITSs0q+rX6hlmzZj3UuuxcGHHs573J//u1tIALB0qRuROhcGeueei/F4/wBSOQ0u29QUP3BhMKCfFVjh9ZbcXiKr4BwAMp1bwJp4ABjNzl8AMNitv+zP6fehqkF8CdlYXz86nnwG/UePG+78pzvy+E589XWvw88//S+IDYsr0zvpxvd/QHe/gKcf78PoaHHtn0qSgKt05gGkcyr2jEytCpivLPDccwVavOUfRiGaLwwAyHRuAel/ALrL/yQJCIQFBQC9+gFAZEXrhTebIq578hS69u5HJimmrO6u3/4O//HmW9Fz4riQ802qbW3F1ltemfcYTQOe/uuwkOtdcoX+Fsp7R0cn6vwXsBLggkBAQo3TgSoDlQ+JFgIGAGQ6ERkADRrSav4NcnxBF2R76W/5TErVXfpns8vwRvQ7JaO0nIbufQcweKJd2DknjXR14Ru3vgVHnnxC6Hk33Xij7jEP/6Fb9xhD19qqX6r3yPg4Jjv42QMBY1mBdQGWBabKwACATCciA5BUVZ3iv4BP0MY/Ru7+vZEIJJu42/++w0cw3tsn7HzTZZJJ/PCf348zBw8IO+fyLVthd+X///wvf+pBKlV6TYCGBhfc7vyB5OGx8YlHL3Twk4FAIVmBtiJ2bySyIgYAZDqPgAxAUufuHwA8fjFLDY2U/fULLBs73HEGo2fF3Cnno2az+MH73oeRvl4h53O43Vh37UvyHpNMqtizS381hR5JAla25d+e+ODoCPJ18EazAmv8DACoMjAAIFPZJAlOm4gAQH8ymYgAQFVzGOnPP/4u2SR4I8a2ydWTHB1D/7ETQs5lxPjAIH760Y9BE1RQaMNLr9M95pH/FRNwrNAJAIYzGQymJ98nc3fwelkBrgSgSsEAgEzlELREzlAGwFd6ADA+lEIul79z9IRCsNnFrGwYOHZi3qv7dezejUOPPSrkXKsuvkR3NcDOh8UEAMtX6d+ZdyTiF0zqO6ewrECDW8xEUiKzMQAgU8mSqAAgfwbAZpPgFlD/P5XUDzR8gtL/8YFBJIbEzJIv1H/fey/UIpcYTuUNBrHyssvyHtN9NiFkh8CWVv0785PxOC6Y1GdwT4CpWQGfoOCOyGwMAMhUsoACQAB0KwC6fQ4hS/LSKf0AwB0QM0Y81N4h5DzFGGg/hUOPPybkXEs3b877czWrYWys9GCjqVl/jX5PMoULOvgZa/71swJeQctWiczGAIBMJSoAyOmkyR1OMW/1jIEMgOx0lXwdNZ1GYsTcmvP7/vQnIecJGMiIDA3pV1XUvU5Qv2Mez06fAzDlscGsAAMAqhQMAMhUogIAVcufARCx/h8A0imdO1UJsDtLn2sQ6xuA7rrGMjv40MPIpEovOOSvMRAADJYeALjd+v/GY9ksdNP+OlkBr6DKlURmYwBAphIRAOQ0TbevtMmChhp0hgBkhxO6G9QbEBsYLPkcpcokkzj9/PMln6cqrF8QaaBfv4yzHperkAAAKKgA0JSfyZJNyNJVIrMxACBTiZgEqBqYJS8sA6AzBKBX+MaoTCIh5DylGurqKvkcvlBI95j+PBv5GOVy2XRjr9HzuyUaH/OfLStQ7RBTU4LITAwAyFQidgHUG/8HxAUAGb0MgFNMAKCmS78jFmG8v7/kc/iqq3WP6RMQAEgS4NOp9TCWzaDgzn+WrEAVAwCqAAwAyFQihgAMZQAEDAFk0zndGgAiMgCapkFNlz4mLsKogPLDbp8Pdp0Os7dLzOZGVcH81zmXASih85/4PsgAgCoAp7MS0ZwGzpwu+RyZdBo5EQv9hZFwboblZOc+9fH07/P9bGHweDwtd999dyabzQ6oqno8m83++LOf/ew3zG4XmY8ZADKVkbt3PUayCKpa+nXsThtsOhv8ZFOlp+4lSYIsYCWBCINnO5EzUGUxn/7Tp3XPUdcoprre2Ej+zEnA4SyoANBcPxvJWCNDY5Tdbre73e56n893RTAY/Pqdd955+Pbbb19udrvIXAwAyFRGxu/1GJlHoGbF3IE6XPlnf4sauxc1l6BkklTyRMC+dv29DGrrSq+doGlAbDx/x1zlcJwr7VtEAaCpj8cypRcuMpPH41kTCASOffKTn7zW7LaQeRgAkKn01u8bYSgDICgAcOpsOSsiAwAADo9+Vbv54PC4cfrg/pLOceLZZ3WPqREQAKRSOd1tEwJ2JwAJGjBR4994AaCpX8MLLAMwG1mWbW63+5dYaGMaJAwDADKViCEAmyTpfoLlBAwBAIBTLwOQSQvZvMcnaDfBUkg2GzzhEPb8+X8x0lvchj3Hos+gfc9u3eMiNaVnPFIp/SCvyj45tHKuI9emBgO6WYFz36sakDCw++RC4HK5Qp/61Ke+b3Y7yBwMAMhUIgIAQL+egLAMgEtn3qwGZAXM4PfVRky/L/OEqmGTZajZDB6778cFbxEcHx3FU7++H6qBrEgoXPqch2TSQADgsGOuu/v8WYEXjo2rVprQWDq32/16s9tA5mAAQKYSFQDozQPIpAXNAdAZAgAANV36mnbZ6YQnGCz5PKXw19Wef9zb3o5HfvifSMZihl472HUWf/rOt5BKxA0Ni4RCpQcAoyP6d+V+uwP5UvuzZwUuDAbiFXL3P8lut7vvuusua4w50bxiAECmEhUAOG3538rJWEZIbX29IQAASI6Ol34hAKHWFiHnKYbd7UJVQ90Fz53csxv3f/6zaN87d0o/p6rY9ac/4Ldf+gIGz3YCAFJjY3mvJdslVFWVviK584x+9cQ6lxeFzP6fDAamZgXigrJJViFJEhKJxMvMbgfNP9YBIFOJmAQIAG7ZjvHs3Kn3XE5DMpGF21vaW95lIAMQ6+tHsKmxpOsAgDcShidUjcTQcMnnKlRkxXJIswRVyfFxPPT978EbCKJm6VLULG2BPxzGUFcX+k93oP/MaWSSLxT1yabSSI6M5r1WwxIPdOI3Qzra47rHLPdVTTwqbN2/NuVxLFdZGYAJVwD4rdmNoPnFAIBMlRFUIMZtYHOWRCxTcgDgD7lgs0l5KwImhoaQU1XYBGwYE1m1Ameiu4RMLDTK5fejqqE+7zHx0RF07B9Bx/78mwXF+gd0r3fltXW6xxhx8ph+5qXF60NxRX9eeNyVFFO10EokSfKa3QaafxwCIFPlNA3pXGmFZoBzGQA9CZ014kbIsg3BmvxFa7Schni/mN383IEq1KxaIeRcRsgOOxo2rRc2ATHWp7+XwItfJiYAOHE4/1BDtcOJsNONUksBn4iJGeIhMhsDADJdosRKc4DBDICAAAAAwvX6N0tGOj6jqluaEVjSIOx8c5EkCQ0bNwirQZBTVd3hC7dbxuatgZKvpWnAcZ0AYF0g9MKkPgDFVgM8qjOngWihYABApksKmFXtlmXdm9bYmJgiPeE6AwHAwGDBy+byqW1bc8GsfNEkmw31G9bCE9Lfuc+o+MAgNJ0hnmuur4fLVfrHUHd3CkmdrZrbAtU436nPMrvfaFbg8NhIye0lsgIGAGS6pIAMgAQJTp0sQGwkJaQegMMloyqUv3JdLptFfEDMMAAASDYJDRvXI7yiVdg5J8lOJ5q2bYa/XkwqftJ4j/5OgtfeKCazsXdX/omGALDaP7mscloHX2BW4ODY/E/KJCoHBgBkOhEZAADw2fOvJdc0YHRQzAQuI1mAwRPtQq51wXWXL0Pjpg1weMRsnuOriWDpJdvgDpaehp8qNTaOcZ2thCUJuOQyMRmHp5/Qn2y4KRhB3g7eQFagP53CWAWUASYCGACQBYjIAACTdd7zGxkQFAA06AcAqbFxjHUXV0I3H19tDVouuwS1a1YVvWuguzqIZmUrGjdfBLur9Dr80w0c098A6JKrahEIlL4QSdOAxx/qyXuM0yZjU/VkAADopv3nyAp0xI0VQiJaCLgMkEyXzqnIaZqhXf3yqXLMXwDg8Tng8TmQiOW/Gxw8fhL+ulpIOtsIF0qySQgubUKgqRHxwSHE+voR6xuAmufu1OX3w1dXA39tDZx+n9D2TBUfHEJ8cEj3uJe+XEz6//TpJAZ681dfvLKmES6bHUaX+p3/XpryM03CSa4AoArCAIAsIaFmdVP4etyyDKfNhnSeiWex0TQyaRUOZ+lr9JesCOD4vvyp50wyiZEznahuaS75erORbDb4aiLw1USAtUA2nYaaTiObSkFTVchOJ2SnE3aXEzb7/Py5G7n7D1Q78bKbxMw52POc/qS8a2qXTHTvJdQAkIAj4/pzDYgWCg4BkCXkq+JXCCNZgKFe/ZKxRtQ1V8Hj1w9ahtpPIZedh+pxEmB3OeGq8sNXE4G/vg6eUDWcPu+8df5j3T1IjenfJb/3o23w+0sPwgDgwf/p1j3m8kgDXijtW/wywL/0dglpM5EVMAAgSxjNiFmiZyQA6OsUk8aVJGBZW0j3ODWTxcDxk0KuaWW5rLHfc0mLF694df5Kg0YNDGSwU2f832d3YH0wjKmduoZpdf4NdP4jmTT2DIur70BkNgYAZAljmbSIvXoQMDgPIJUQc0cervfqLgkEgJEzZzHapX+nulBpmoauvfuRTervhPiBT6yF0ynmo+fBP/bqVkl+cV0T7DZ5zqV+RrMC0aF+Ie9RIqtgAECWoGoa4gKGAVw22dBcAlFZAABoXRs2dFzfoSNIDldmEZn+I8cMbVq0dmMQ115XI+y69//ktO4xr25eBSNL/fSyAo/3V24AR4sTAwCyDFHDADXfz+sKAAAgAElEQVQu/TXyvZ3ilnNVhVyGygNrOQ1d+/YjW2GbyYycOYuRM2cNHfuhO9YK2fkPAI4djePYofyT8nx2B15St3TiO+MFgGbLCjzY0ymm4UQWwQCALGNMUAAQdrmnzfaeKRnLYGxIP11t1LK2EIysYlTTGZzd8zxygmofmC0xNIz+I8cMHXv5i+uwXQnqH2jQ//xW/478dUtXwyPbUWwBoMlAoCeVwBFWAKQKwwCALGMsmxEyxmqXbKh26s8F6DwhLh3v8TvQtMJY55Yej6Hn+YO6dfKtLj0eQ9fe/Yb2PPD4ZHz002uFXXt0NIv7/lN/wuFrm1ejoNn+c2QFnhnUL2tMtNAwACDLyGkaYoKWA0Zc+jvaDfbEERe0QRAAtKwJIVRnbCe9WP8AOp/dAzUt7vrzKdbXjzPRXYaXN37+m9vQ0iKmfDEA/PK+s0gm8mdRmr1+KOF6XNjp68/2P/fthVmBx/qNDXEQLSQMAMhSBlNixsernS7YJf2395njAiflScCaLbXwGqgNAADJ0VGcfvo5Q+vmrWSovQNde/cbHsb48L+sx+VX6C+XNCoWU/H9bxzXPe6ty9ZDgg35O/ypj2f/WUbT8NvOyl/GSYsPAwCylMF0UsgwgASg1q1/N97fFUNSp5xvIWS7DWuVetgNLnPLplI48+wu3Y1zrEDL5dD9/MGCahq84g1L8ea3i62C+JtfdmF8LP+/mV2S8IaWtdDv8PWzAjv7uzCUFjdfhMgqGACQpWRyOYwI+rBt8Hj19xfQBGcBALi9drRtrYNkcG8DTc2he9+Bc7sHGhhPN0M2mcKZZ3djvMf45kYbt4XxiTvbDE2ONCqZzOF7/6E/6fAtrevR6PZPfFdoxb8Lj/v56aMCWk5kPQwAyHIGBA0D2CUb6gzMBejrjAmdCwAAwYgbyzcYqw8wafDkKXQ8FUWsX39r2/mSy6oYOH4Sp558GqnRMcOvq23w4Avf3Cys4M+k+350BkOD+f+tJAD/uGrrRP8926Q+41mB0Uwavz/L9D9VJgYAZDlDmRRUQXfCDR6f7p24pmk48fygkOtdcO2WKjS2Bgp6TToWR9ee59H57G4kR83beEbTNIyc6cSpJ5/CUHtHQSsWvH47vvJ/tyESKW1zp+m6ulL41heP6B73mqVr0OoLYtZJfQXOAfhTd0fezaWIFjIGAGQ5mqYJmwzosNlQayALMDqUFFodcNLy9WEsWxt6oW8xKDE8gjPP7EL3vgPIJMRsXmTUeG8fOp58Bn2Hj0FNFzY/YukyH374m8uxZo347Ya/+G+Hkcnod8bvXb19oojPLB18gVmBn3YcFtV8IsvhdsBkSf2phKFJfEY0erzoS8Z1Jxe2HxpCuN4L2S42Lm5aEYS3yokju/qgZgu7mxzv7cN4Xz881UH4amvgr43A7ha3nA4AoAGJkRHE+voR6xsoOuC49EW1uOfLGxEIiP9YeXLnEB75o37hnxsal2Nt4FypYW3Klr6TZX1e6Ny1F4IAbZafQcKZxBie4PI/qmAMAMiSxrMZpFQVLrn0LWOdNhl1bi96kvG8x2VSKjqODGP5+sLG7o0I1Xqw6YpGHIz2IhkvcNWBpiExNHy+6t7kdr++2hq4qvz6r5/tlLkc4oNDiPX2IzYwUPCd/nRv/vvl+MBHV8FuFzjjb0IymcM9/7Jf9zibJOHj667AuY58aof+QjAwMxAAIE35Xnvh8e86TwhoPZF1MQAgy+pOxrHMVyXkXE1ePwbTSWR0xnO7To0iXO9FMCL4LhvnqgVuurIRR3b1Ybi/+LR+amwcqbFxDJ48Bdlhh+xywe50wu5yQXY5YXc6IbucsMky1EwG2VQaaiqFbDoNNZVGNpVGNpUSUolQliXccc9GvPI1DSWfay7f+PIJnO3IH7wBwD+u2jZx9z+tg5/yvdGsQEpV8e3je0Q0n8iyGACQZfWnElji8cEhYPcYWZLQ4q3C8XGdJX8acGR3H7ZctQQOV+nZh+nsDhvWXVyP9oOD6GovfZKfmslCzWSRhrjNjYwKhpz44o5t2LK1sImOhXjkoQH85Lv6d+INbh8+2HbpxHezd/6FZAV+1XlEN2NEtNBxEiBZVk7T0J0U17GFXW4EHPp7BGRSKo7s7ivbknxJOjc5cMOlDfAH9dtjNbIs4S3vXoFf/OnKsnb+nZ1JfPrDxu7C7958Lfx2Jwoq9zvxWMMLm/4AErJaDl86FBX0WxBZFwMAsrTeZAJZTdwyrGW+KujtFAgAIwNJnD5a3t3fghE3Nl25BGu21MLtXRjJuBtf1YT7H7waH/rYKoRCYpf5TZVO5/Dx9+1BfFx/r4GX1LfipiWri17qN/VnGoDfdx5HR9x4zQOihWphfOrQopXTNPQk4mjyFjfZbTq3bEeDx4uuhH5m4czxYQRCLlTXilmNMJeaJT5EGrzoOjWGM8eGkTWw1G2+XXxFDT7wiTVYu07Mv4OeL33uGA7t06/Q6LDZcPfml2DWSX0zZvdP/37mz1QNuPfwMyW1nWihYABAlteTjKPB44MsqKZsk9eH0Uxaf+dBDTi8qw8XXdoAX5lT9ZJNwpLlAdQ1+9F5fARd7aPI5cwvC7xqbQAfvKMNl14WElrSN58ff/8Mfv6DdkPH3rPlOizzTd1oaEqnfsHs/mk/myMw+HP3CRwdGyq26UQLCgMAsjxV09CbjKPRI6a4jAQJK/1B7B8Z0K04qGZzOBDtwcbLG+clTW932LBsbQhNK4MY6o1joCeOkb4EVHX+goHWlX7ccMsSXPXiGrSt9UPAHEzD/vBAL7501wFDx7566VrcumzzlGfydPAGsgIagHsPPV1s04kWHAYAtCB0J+Ooc3uFZQFcsozl/iCOjemP82dSKg483Y2NlzeWZWXAbOwOG2qb/Kht8iOX0zDcn8BQTxyDPQlk0sa24S3ElkvCuP5vGnH51REsXSp+CaQRf31iyPCkv1ZfNf7fLTdg9g4/T9o/T1bgwe7j2Ddi/V0ZiURhAEALQjaXw5n4uLC6AAAQcrpQ5/ai18Byr2Q8iwPP9OCiyxqEVwrUY7NJCNd5Ea7zYuVFwNhwCkO9cSQTWaSTKtJJFZlU1lCWIFzjQuNSLxqbPKhvdGPthgAuvSKEcLh8E/qMOLB/HB/+P88hZ+B3cNhs+O5lr4Lf7pp4xmDnn6cAUCKbxif3PlL8L0C0ADEAoAWjNxlHrcsNr11cZ9Xi8yOWzejPBwAQG01j/9M9WKfUweGcn0zADBJQFXKhKuSa8SM1m0M2k0NNxI7mZheam92oqXUiUuNEKOxAdbUDDsc8DeQXYO+eMbz/Hc8gnTKW2fjs5pdhfaB+4rsiO/9pP/v60SjOVOjM/1wuh4GB/DtMqqp6ap6aQxbCAIAWlPbYGNYHxZXqlSBhZVUQB0cGdasEAsD4cArPP9mN9ZfUw+Wxzp+P02nDLa+vw2WXBS3Zyc/l8UcH8dF/eM7QJj8A8LblW/Dm5VsnajRoU5Z0Ft/5nxgfwlcPV+7Yfy6Xw/Cw7lBX53y0hayFdQBoQYllM+hNit0dz2WT0RYIGZ5fkIhlsO/JLsTH8u9LP19Wrvz/27vz8LaqO2/gX22WvMSx432BOHtCQlYRCEwIUBqgZYBAWcu06TvtsDTdaOlLO512hkJLp9N5n9IWaNqBB6ZQ9q2FUpZCSiCQnOyJY+PEdhzvtrxolyXd+/5hO3Es2daVr32vrr6f5/ET60q6+ilRdL733HPPycQ998zG+vV5KdX4v/pSB771zyLhxv+z5Qtx/8rLBhv9oVX95BET+SidAAhDz7tn3zuITNWsT0Q6xgBAKafF703oaH08WVY7zsqbjWX5c5BjzUSmxYoFM/JgTjAEDASjOPRRO9w96ixbnKwzzrDja1+rRGGhtufwlZBl4LHfNeHeu/cnPNvi+UVn4sFzroHFNHzqJXZ53+EwoGQCoD8112J714lJvyeiVKSfPkyiBEVkCc1+D+bkzFT0PJvZiuvnXIQLSs5GSWb+aU1BZ7APoqsGD9W8jgO9HRMuHQwAkbCEwzs7ULU4H2VVUzcl7lgsFhM+//lSmM2pc9Tv80Xxkx/W4K+vJN7jvHRmCR4973o4LDYkMqhPHjG6f+TM/6Of5w4H8YMDf0v6vRClOgYASkndoSAK7JkJze0PAPNyK7BlybU4M2fk4DGcbOiLHHn4zBnnYW3REvzkwDN4rnF3QvuVJRkN1T1w9wQxf3nhtF4hcNlls1BeHjsYUK8++cSH796xD83HE1/f4czsPDx5wc2YYctEMpf6jTdW4GfV29Ed4oI/lL54CoBSVr23H5EETgWsLFiAn55zO86cUYpT09nFdg3LMKHAMRP/vfZf8JPVNyqqxdXux/7trfD2T9+4gFWr1LskcirJMvDSc234wlU7FDX+c3Jm4fn1/4Qix/D7VD63/1hjBd5sO4rH6vdO7o0RpTgGAEpZYUlC/QTL+2Za7bhjybVD546HjxBNIxaOAeIFgVvnfwq/Pf/LsJoSv9wv6I/g4I42tNb3Q57iQWV2uxnFxfpfSdDlCuN73zyE+793EJFI4uM2VuSX4dUNX0JF1vA0v0k0/iNvjxgrcMLvxtd2v5b8myIyCAYASmn94YFxF/bZvOCzKHTkYcwGIm4QGLx9ReVaPLXh68i2Jt7QypKMxppe7H+/dUoHCFZW2qdtbv5kRKMynn+6Fddc8ne8/VqroudeWDwHz63/ImbZhxcemmTjP+L3AUnCHTtfhiccUvyeiIyGAYBSXovfC084tus9NyMbl1asRUINxBi9AucVL8ELl9yNQoeyVfD83jAOfdSOun1dCCc4wY0SmZn6/a976KAH/7RpJx74wSEEfMre+zVnLMPjF3we2TbHqaN2lRp/wISfVb+HPb1tybwtIsPR77cIUYJkDI0HkE/vYp43o2LELQWNx6ggcFZeFV665B5U5RQqrq2r1Yc921rQUt+PaFS9ZX6bmvR3BNvWFsJ9/1aDzZt24JPqiZfyHe22hevw4DnXIcM8fEnjqO77STb+b7fX4ZFPjDvhD5FSvAqADGFAklDvcWNhbt7JbXNzK8d4dAIjySFjZB/77JwS/PnSH+B7u5/An07sUVRbNCLheE0vWur7UV6Vi9LZubDaJpe93e4I+vsjmDlT+//CTceDePx3jXj1maaEr+sfKduagV+eswlXlC8d2jLGaH/TiNvjrOoX+zvQ4u/D13e9qrw4IgPT/tuDSCX94RBa/F5UZA121xc58iZ4RmKNx3AYyLXn4Nfrbsc/lLyHf9v7LAaiEUX1RQYkNH3Sh5Z6N8pmz0DZnNxJrSlQV+eH0zn98w8MO3rUj8ceblB0Tf9oy/PK8Mh5N+HM7FkjFuVNIKCdtrzv6Mee/jxfJISvfPwC+nnen+g0DABkKK0BH2xmM4odWWjytit4ZmK9AiaTGTfPuwSrC+bj9g8fwTFPp+IaoxEJzcf60drgxqySLBRV5iCvMFPxoL5XXunG0qU50zoewOuN4v33XHj5mWbs3tE9qX398/zz8P1ll8NuGf4akocu0xsdBAbvS6ZXYECK4LaPn8d+nvcnisEAQIZz3OeB1WzGMXcyR6aJ9QosyjsTf974Q/z7nj/gmYaPkqpTkmR0t/nQ3eaDzW5BUXk2iitzkDUjsasO+vsjeOGFTtx6a2lSr5+oaFTGHuHGay+14q+vtCQ8d/9Y8jMy8V9rNuGyk13+wOi/a3nE33WyvQKSLOHbe17Fux31k6qXyKgYAMiQ6j1uZFuPIxQdgN2S7PXy4zc62dZM/Hztl3HN7PPwg91PJdUbMCwciqK1wY3WBjcys22YWejAzIJMzJzlgDVj7CP8nTvdKCiw4bLLZqk6JXBrawgH9vbj4w9c2P52B3p71Jng6Avz1uK7SzciLyMroe77yfQK3HfwTbzYdEiVuomMiAGADEmGjMN9nfif2j/jzrOuneTexm90Lig5G3+9/F48XvcWfn7wVQSj4Um9WsAXRsAXRvvxwfXps3MzMLPAgZw8O7JybHBk2WC2nKrpL39x4fBhH269tRSlpcrDjtcTRWtrEMcb/Nizsxfvv9OB9hZ1V1xclleGn63ehBWzzji1cbj7Xk7s9IuSXoGHarfjt3Ufq/kWiAyHAYAMKyrL+O/Dr+PC0pVYNmuuSnuN3+hkmG34yqLP4MozzsX9+5/Bq02JrSWQCJ97AD73iCNwE2B3WJGZY0Nmjg12hxUdJzw4uLsHZy2bgXkLsjF3bhaKSzMwEJIQCEQR8A/+6fdF4fVE0NTow7FaD2oPu9HrmrrBcdnWDHz/7Mtx69x1cZZbHvo7jDmPP+J2zO+Dt8frFXju+F7cf+gddd8IkQExAJChDUhRfP2j3+GFT30f+XY1586Pf6RallWIX6+7E1+YfwS/OPQKdnTWqfiap14uFIggFIigr+v0I/XDu5I/DaGmTKsNX5l/Ab40f/3QXP6jrw+cYFBfkr0Cr7ccxrcEL/cjSgQDABneUU87Nr1zP5666Dsoz1I+mc/EYhuotUVn4ZmLl2Cvqw6/rn4Nb7UenILX1Z9cmwO3L7wQX5h3PvIysoe2Jn69/mR6Bf7QsAv37Pkz5IQWcyYiBgBKC/WeDlz11n14+uLvYP6YEwSp4fQGalXBQvzP+oU40teIh4+8jleadhuygSpwZGPLootxU9U6zLCNXKI4icZ/9O8TXOonQ8aDNX/Dzw+/q9K7IUoPDACUNjqD/bj67Z/gfzd8E6sLFk7xq53esC3Jq8KD6+7EXWe34ZXjO/Bsw4c44euZ4hqmlsVkwqfKluD6qnNwUekSZFoyMNh9P9Yzkmj8R98edalfVI7ih/v/hMePcYpfIqUYACiteMIB3PC3n2PrBXfikvJV0/Sqpxq2qpwyfGPptfjaWddgr6sOrzR9jBcbP4Y7rO6o+6m0LL8ct8w5D1dUrESh49S4CnmooT411m+sc/nq9AqEomF8UzyLP53gpX5EyWAAoLQzIEXwf7b/Cv91zmZ8bs6F0/jKpxo2s8mMNYWLsKZwEf51xU34oOMQ3mrdi23t1Wj29U5jTROzmSw4t3guLixZiE+VLcPC3PKhe0Ye6p9qnOURt00xg/pGSy4YeMIBfHnH/+KDTk7yQ5QsBgBKS5Is466dj+G4txPfXLYJFlPyc/In51TDZrdk4JLy1bikfDUAGc2+LuxxHcWOzhpsa6tGs396TxVYTWY4C+fgwpKFOLdoAZbnz4bDYhv1qMQa7qnoFahzt+ErHz2Jo+6uJN8hEQEMAJTmfln9Gj7srMVvzr8dpZkFGlQQ2+hVZhejMrsIV525DgDQ5nehwdOGRm8H6j0dOOpuQ21/K1r8fZN65QyzDYtmlmBRbikWzCzF3JwSzM4pQtWMEmSaRzb4CV7CN859yfcKnO654zvxf3e/jAFJ2UJMRBSLAYDS3q7uo7j0jR/iwXO/PI3jAuKJ36iWZRWgLKsA55csw8jG2B8Jod3vgj8ShD8Sgi8ShD8ShC8yAF8kgAEpghyrA9lWO3KsDmRZ7ci2Df6Za8tEsWMmzCYz4jfwI36XEzsyV79X4NRtfySEf937Ap47vjf2r42IksIAQATAPeDH5vcfxJcXXYp7lt+ADPPoLu/plFijmmW1Y+7w+Xh5/EbcNM59E77eyZvqDuSbuFdg8L5adxtu2/EEjnrY5U+kpulbR5QoBfy+9m1sevvHOK5oKeGpZMKpxtM0xm0AJtOpnzjPk0/+KNjn6PtOvobC5yVwn4yhmDLqNZ5t/BhXvP1LNv5EU4ABgGiUg70nsPGv/46n69+FJE9u6Vv1JNFQj/G82CCQRCM+TtiYTDAYrq3J14Mvffh73CWe4/l+oinCAEAURyASwnd3PYGr37oXh3obtC5nFOP2CoSiYTxc8zYueuNneKv1iIK/EyJSimMAiMaxv/c4Pvvmj/GF+RvwnbOvw8yMHK1LGkHBOfjhECDHPz8/fD7epGSfo+87eTO5sQIfdtbgnt3PocHbHe/NEpHKGACIJiBDxuNH38MrTbvwo1U34NrZ62GKWdpWawk2uCPrjtNQyyOeZ0qiET/9NRK7gqAj0If7DryEl5s4wp9oOjEAECWob8CHb338GJ48ug33rrkVy/LnaF1SHKnTK+AJB/DH+u34RfUb8EcGFLxHIlIDAwCRQsJVj8+8eS82lC7F18+6EucULda6pDHos1egL+THE8e24ZHav8ETDibxvohIDQwAREna1n4Y29oPY1XBHHxz6VW4qHSFDk8NAHrpFegK9uGxunfx+7ptCPCIX29SZzUqUg0DANEk7XU14It//yUW5pbjG0uvxBWVa2E1T/faAoma/l6BVr8Lv6t9C48f246wFFXpfZDKarQugKYfAwCRSj5xt+KrO7aiIut5fGnBJfjsmeeiIqtQ67LGMLW9AgPSAN5vP4znGnfgLy0HIMXMVEg6EgJwVOsiaPoxABCprMXfg/v2P4/79j+PtUULcOOcC7CxYo3OLiEcSZ1eAQkyDvU04uWmj/Bs40foH2Cvcoo4snXrVnbNpCEGAKIptLOrDju76mA1PYGNFStwXdUFWF96NhyWDK1LiyO5XoE2fw/+fGInnqr/AMc8HdNSKanqAa0LIG0wABBNg4gs4fXmvXi9eS9ybA58quxsXFCyBM7ChZg3o1yHgwfHbvzdYT/2uo7io85avNt2GNV9zRrURyp5devWrc9oXQRpgwGAaJp5w0G80rQLrzTtAgDk23OwoWTJyUAwV1eBwAR/JIh9rqP4qKsG29oOY1/P8aElfSnFfQLgDq2LIO0wABBprDfkxctNu/DyUCCYZc/B2sL5WDCzHHNzSnBmTjHOyClCsSMfZtPULd8RjA7ghK8TjZ4O1HvaUOduQ01fCw71NXEQn7GEAfwcwI+3bt3KiRjSGAMAkc70hLx4o2Uf3mjZd9p2m9mKBbmlWJBbijkzSpCfkYNsmwPZVgeyrXZkWR1DP3ZkWe2wma0IRgbgj4bgjwQRiITgi4TgiwThH/rTFfTgE3cLjvS14ITPpdE7pikWBSAAHABwEMBbW7du5WV/xABAlCrCUgTVfc08506KhMPhlq1bt56ndR2kP1wOmIiIKA0xABAREaUhBgAiIqI0xABARESUhhgAiIiI0hADABERURpiACAiIkpDDABERERpiAGAiIgoDTEAEBERpSEGACIiojTEAEBERJSGGACIiIjSEAMAERFRGmIAICIiSkMMAERERGmIAcBgZFkOJvGcmG1mMz8aRFrLyMiI2SZJkqJ9yLLsUKseMhZ+yxtMbW1tUOkXRDQajdmWk5OjVklElKSCgoKYbQMDA4r2IUlSWK16yFgYAAwoXoM+nniBYcaMGWqVQ0RJKiwsjNmWRADwqVUPGQsDgAFFo9HYPv3xHx+zLTc3V7V6iCg5WVlZMduUBgBZlt1q1UPGYtW6AFJfNBqVAFgSfXy8HoCZM2eqWRIBcDgcWLlyJUpKSrB37140NTUlvZ+srCyEQiH4/f64YzgmYrVakZ2dDQDw+XyIRCKK92EymZCVlQW73Q6/349gUPHwExqH1Rr/6zkUCinajyRJPWrUQ8bDAGBA0Wg0AgUBIF4PAAOAujZt2oSHH34YxcXFJ7c99dRT2LJlC/r6+hLaR0ZGBubOm3vav00wGET9sXp4PJ6Ea6moqEBFZQVMJhOAwUGgLc0taGlpSXgfOTk5mDtvLjIzM09uc7vdqK+vRyiorIGi+ByO2LF7kiQpDmuyLHeoVRMZC08BGNDAwICiLr94AWD46JAmb/369Xj++edPa/wB4JZbbsGTTz6Z0D5MJhMWLV4UE8wcDgcWL1kct7GIp7yiHJVnVJ5s/If3XXlGJcoryhPah91ux+Ili09r/IHB00aLFy/mFSQqifd/UGn3PwBEIpFdatRDxsP/qQYUDocblDw+Xpei2WweswuSlHnggQdOa3BHuuKKK7Bx48YJ91FUXBT3fDAw+G9VUVkx4T4sFgsqKyvHvL+yshIWy8QdRxUVFWM+zuFwoLikOO59pMzowAgkFwCi0eg7atRDxsMAYEDhcHiHksfLshzzxRKNRsdtLCgxGRkZWLNmzbiPWbdu3YT7meiyzESu2sjOzh4ziACDPQGJ9PzkzBi/lpxsXkKqhnPPPTdmWyAQULSPSCSCI0eOVKtVExkLA4ABRSKRd5U+Z2QvQDQaRVVVFdauXatqXelIkqQJJ25J5LLNiQb6JTIQUK3HYIKHyBM9gCZksVgwb968mO0ul0vRfgKBAOcAoDExABhQNBp9R+nI8OEAEIlEUFVVBavViuXLl497xEgTi0Qi2Llz57iP2b59+4T78Xq8496fyCBAn883bhiRJAk+38SXjLs94w8xmahWmlhVVVXMNkmS0Nvbq2g/oVBI2RMorTAAGFBtba3X6/UqOlkYCoUQiUQwZ86ck+f+LRYLSktLp6TGdHL33XePeZT/wgsv4L333ptwH93d3fB64zes0WgUzSeaJ9yHJEk40XRizPtPNJ1IaJrZluaWMUei+/1+dHZ2TrgPGp/T6YzZ1tvbq3ga4FAoxAGANCYGAIPy+XyNSh4vyzIKCwtjBv6tWrVKzbLS0q5du3D55ZejsbHx5DZZlvHQQw9h8+bNCe1DlmXU1tSix3X6Jd1+nx/Vh6sTHhzW3t6OxsbG0xoSSZLQ2NiI9vb2hPYRDodRfbg6pregt7cXNTU1Sc1LQKeYTCacffbZMduVdv8DQCgUeliNmsiYOMzboEKh0NMAfqjkOR0dHcjPzz9tm9PpxOuvv65maWnpnXfewfz587Fw4UKUlJRg//79CV//PywSiaCurg62RhsyszIRCoWSuua+o70DXZ1dJ68q8Pv9io8sA4EADh08BLvdDrvDjoA/gHCYp5vVUFZWFnOVhSzL6OlRNp9PKBSSq6urX1OzNjIW9gAYVDgc/pXSL/Xu7u6YL/HMzEwsXrxYzVJ0ATAAABDiSURBVNLSliRJqKmpwbZt2xQ3/iOFw2G4+92TmnBHkiR4vV54vV7Fjf9IoVAI7n43G38VXXXVVTHb3G7lf8cezwSDNSjtMQAYVE1NTbfH41HUQsiyHLcb+LrrruNgQKJpUFFRgdmzZ8dsT6b7PxgMvq9GTWRcDAAG5vV6Fc0HACBuAMjJycHq1atVqYmIxnbjjTfGbAuHwwmPzxgmSRJCodBdatVFxsQAYGChUOhrSgdkBYPBuJcaXX311QnNEkdEyVm4cCGKiopitjc1NSle4ruvr89/5MiROrVqI2NiADCw6urqQ729vcqmDgPirlJns9lw4YUXqlIXEZ3OZDLh+uuvj9keDAbR1tameH9+v/9NNeoiY2MAMDifz/ey0ue43W50dMQuIPbpT396zPnoiSh5Tqcz7nTPjY2Nii+rDIfDkCTpTrVqI+NiADC4UCh0ezILiDQ0NMRM9mIymXDbbbdxtTciFRUUFGDTpk0x271eL7q6uhTvr7e3t+fAgQPKuw0o7fCb3OBqamrcXV1dh5Q+LxwO4/jx4zHbi4uLccMNN6hSG1G6s9vt2LJlS9yrbBoaFC3qCWBwVshgMHi7GrWR8TEApIdrlK4iBgBtbW1x54ZfsWIFzjvvPDXqIkpbZrMZd955JxwOR8x9PT09Sc0V0dXV1X/gwIHn1KiPjI8BIA3s3bv3mMvlUrwkqCzLqKuri3sO8uqrr+ZywUSTcNNNN6G4uDhmezAYRG1treL9DQwMIBqNfkuN2ig9MACkCYvF8o+JrBg3msfjQV1d/KuJ7rjjjpipg4loYhs2bIg73380GsXhw4fHXGxpPN3d3T6LxfK4GvVRemAASBO7d++u7+vr+zCZ53Z0dKC5OXa1ObPZjLvuugsVFRWTro8oXWzcuBGXX3553Ptqamrg9/sV7zMQCMBkMn1HCJH8vM6UdhgA0ojNZruht7c3qaXaGhoa4i5GYrVasWXLFixfvnzS9REZmdlsxubNm3HxxRfHvX+s/2OJcLlcnSaT6beTqY/SDwNAGhFCtHi93j8lu1zreEcnN998My677LLJlEdkWFlZWfj2t7+NRYsWxb2/s7Mzbi9bIjweDywWyyYhBNdhJkVMXLs7vTidzkyr1dpfWFhoS+b5drsdy5YtG3NCoMbGRjz66KNcHY5oSFlZGW6//XZkZGTEvb+vrw+HDx9OelXG5uZmsW/fvnMmUyOlJwaANLR8+fLbysrKHrHZksoAsFqtWLp0KXJzc+PeHwgE8Oyzz6KmpmYyZRKlNKvViksvvRQbNmwY8zFtbW04duyY4tn+hrlcLjkcDpcLIZStFkQEBoC0tXLlyg8rKirWJbvMr9lsxuLFi1FQUDDmY1pbW/HHP/4R3d3dyZZJlHJMJhPWrl2LK6+8ElarNe5jZFnGsWPHkprnf5jP50NfX9+WvXv3/ibpnVBaYwBIU06nM0eSpPby8vLsyexn/vz5KCsrG/cxdXV1ePHFF5Oa2IQolSxZsgSf+9znxl0zIxwO48iRI+jv70/6dcLhMDo6Ol7at2/ftUnvhNIeA0AaczqdZ1ssln1FRUWTGgxaXl6OqqqqCZcLPnLkCN599100Nzcn3eVJpDeZmZlYuHAhLr30UhQWFo77WJ/Ph+rqagSDwaRfT5ZltLS0NFqt1kVCCOULfRANYQBIc6tXr/5cdnb2czNnzpzUfux2O+bPn49Zs2ZN+NhIJILq6mrs3r0bjY2NSGaxIiIt5eXl4ayzzsK6desmbPSBwUa7vb0dDQ0NiEajk3rtlpaWoMViWSCESO6yAaIhDACEVatW/WdBQcHd8eYkV6qoqAhz584dc8RzPB0dHTh48CC6urrQ398Pr9cLv98/PLXppGsiUspkMsFqtSIzMxPZ2dmYMWMG8vPzUVRUhFWrVilaFtvlcqGxsTGpCX5G6+jokGRZvlgI8fdJ74zSHgMAAQBWrlz5ZllZ2acn6sZPhNVqRVVVFUpKSlRZOpg9BDSdzGbzmIP3lPB4PGhoaJjUuf6R+vr65EAgsHH37t1vq7JDSnsMAAQAcDqdpkgksquysnKNWvu02WwoKytDWVmZoh4BolQWDAbR2NiIrq4u1fbp9/vhcrlu3L9//7Oq7ZTSHgMAnWbVqlV7y8rKVqpx5D7MZDKhqKgI5eXlmDFjhmr7JdKLgYEB9PT0wOVyobe3V9VBrj6fDy6X66sHDhx4SLWdEoEBgOJYsWLFsyUlJddPxVF7dnY28vLykJeXh9zcXFW6Wom04Pf7Tzb6brd7Sl6jp6dH8vv9/7hv377Xp+QFKK0xAFBcK1asuC8/P/9fc3Jypuw1TCbTyUCQm5sLu90Om80Gm82mytgBosmKRqMYGBjAwMAAQqHQyT97e3sRCASm9LXb29v7JUlasmfPnuRnCyIaBwMAjWnVqlWbHQ7HowUFBclNFzgJZrP5ZBhQY2AikRLDjb4WV6FIkoTW1tY9Vqv1HC7vS1OJAYDGtWbNmo0mk+n10tJStsJEUywUCqGjo+PBAwcOfEPrWsj4GABoQk6n89xoNPpeaWmpg0fjRFPD4/HIvb29mw8cOPCE1rVQemAAoIQ4nc5l0Wj0/dzc3DyO5CdSjyzL6OrqigwMDFy0b9++D7Suh9IHAwAlzOl0zgXwVjQanTtr1ixkZmZqXRJRSuvp6UEgEOiwWCwXCCGOaV0PpRcGAFLE6XSWAfgAwBxJklBUVASbzaZ1WUQpxe12w+PxwGKxHAHwaSFEi9Y1UfphACDFnE7nIgAfApglSRLMZjOKioo4Wp9oAn6/H729vcP/VwSAy4UQLo3LojTFAEBJcTqd/wDgbQB2YPDSJavViqKiIphM037VIJGuhUIhdHd3w2w2D///2AfgQiGER+PSKI0xAFDSnE7nDQCeBnCyxY9Go7BarcjPz+f8/5T2PB4PPB4PTCbTyGDcD2ANz/mT1hgAaFKcTufdAP5z9HZZlhGNRpGZmYn8/HzO7EdpIxgMoq+vD9FodKzTYpuEEC9Pd11EozEA0KQ5nc5fA/jqWPdLkgRJkmCz2ZCdnY3s7GyeJiDDiEajcLvdCAQCkGV5orEwvxBCfGe6aiMaD1diITV8A8AZAK6Kd6fZbIbZbIYsy/B6vXC73ZBl+eR0v3a7HVlZWRxESLoXCoUQCAQwMDCASCRy8nNsMpkS6eX6AMA901AmUULYA0CqcDqdWQA+BrAs2X1IkgRZliHL8mk9BOwtoOkW73sxwUZ+LJ0AVvNyP9ITBgBSjdPpXAFgJwCO/iM6RQJwmRDiba0LIRqJI7NINUKI/QB+oHUdRDrzUzb+pEcMAKS2XwB4T+siiHTiKID7tC6CKB4GAFLV0PrlX8Tgtc5E6e5OIURQ6yKI4mEAINUJIZoA3Kl1HUQae1oI8ZbWRRCNhQGApoQQ4ikMzhJIlI76AdyldRFE42EAoKl0B4BmrYsg0sAPhBBtWhdBNB4GAJoyQog+AN/Sug6iaSYAPKR1EUQT4TwANOWcTud2ABdoXQfRNJABnCOE2K11IUQTYQ8ATYdva10A0TR5mo0/pQoGAJpyQoiPATyjdR1EUywC4EdaF0GUKAYAmi73AAhpXQTRFHpMCFGndRFEiWIAoGkhhGgE8KDWdRBNkSCAe7UugkgJBgCaTj8B4NK6CKIp8LAQgpe8UkphAKBpM3RZ4H9oXQeRyrwAfqp1EURKMQDQdHsEQLfWRRCp6FEhRJfWRRApxQBA00oIEQanCCZj+YPWBRAlgwGAtMAvTDKKT4QQu7QugigZDAA07YbmBeDlUmQET2pdAFGyGABIK+wFICNgAKCUxQBAWmEAoFT3kRDimNZFECWLAYA0IYSoB/Ch1nUQTQJDLKU0BgDSEr9AKVVFwPUtKMUxAJCWngEQ1roIoiS8KYTgfBaU0hgASDNCiB4Ah7SugygJ72ldANFkMQCQ1vZoXQBREvi5pZTHAEBa26t1AURJ4OeWUh4DAGmNX6SUahqHTl8RpTQGANLafgCS1kUQKcDufzIEBgDSlBDCB04LTKmFAYAMgQGA9IBfqJRK+HklQ2AAID3gOABKJQwAZAgMAKQHDACUKlqFEB1aF0GkBgYA0oP9WhdAlKB9WhdApBYGANKcEKILQFDrOogScELrAojUwgBAetGmdQFECWjVugAitTAAkF7wi5VSAT+nZBgMAKQX7AGgVMDPKRkGAwDpBY+sKBXwc0qGwQBAesEjK0oF/JySYTAAkF7wyIr0LgKgU+siiNTCAEB6wQBAetchhODCVWQYDACkF+xaJb3jZ5QMhQGA9II9AKR3/IySoTAAkF70AYhqXQTROLq1LoBITQwApAtCCBlAv9Z1EI2jT+sCiNTEAEB6wi9Y0jN+PslQGABIT/gFS3rGzycZCgMA6Qm/YEnP+PkkQ2EAID3p1boAonHw80mGwgBAesIjLNIzfj7JUBgASE/4BUt6xs8nGQoDAOkJv2BJz/j5JENhACA94Rcs6Rk/n2QoDACkJxxkRXoVEUJ4tS6CSE0MAKQnPVoXQDQGfjbJcBgASE/YA0B6xc8mGQ4DAOkJj7JIr/jZJMNhACA94Zcs6RU/m2Q4DACkJxxlTXrFUwBkOAwApBtCiAgAt9Z1EMXBHgAyHAYA0hseaZEeMQCQ4TAAkN7wi5b0iMGUDIcBgPSGAYD0iJ9LMhwGANKbTq0LIIqDn0syHAYA0pvjWhdAFEeT1gUQqY0BgPSmUesCiOJgACDDYQAgvWnUugCiUbqEEH6tiyBSGwMA6U2j1gUQjcLTUmRIDACkN+xqJb1hACBDYgAgXRFCBAB0aF0H0QgMAGRIDACkR41aF0A0AnulyJAYAEiPGrUugGgE9gCQITEAkB7VaF0A0QhHtC6AaCowAJAevat1AURD2oQQtVoXQTQVGABIjz4CENC6CCIA72hdANFUYQAg3RFChAB8qHUdRGAAIANjACC9+pvWBRCBAYAMjAGA9IoBgLR2VAhxQusiiKYKAwDplQDg0boISms8+idDYwAgXRJCRAD8Xes6KK0xAJChMQCQnj2hdQGUtlwAXtO6CKKpxABAevYCgAati6C09BsuAUxGxwBAuiWEiAL4f1rXQWknCODXWhdBNNUYAEjvfgegWusiKK08IITo0roIoqnGAEC6JoQIArgFQEjrWigtfAzgfq2LIJoODACke0KI/QDu1roOMrw+ALcOXYFCZHgMAJQShBC/AvANALLWtZAhtQHYIIQ4qnUhRNPFJMv8PqXU4XQ6b8HguIAsrWshwzgC4LNCCF5xQmmFPQCUUoQQTwFYBuANrWuhlBcE8CMAK9n4UzpiDwClLKfTeQOA7wJYo3UtlFJCGJxj4kfs8qd0xgBAKc/pdK4G8C8YvFpghsblkH7VYvD00eNCiG6tiyHSGgMAGYbT6cwGcDMGw8A5GpdD+hAC8CKArUKI9zSuhUhXGADIkJxO50oANwC4EIATgF3bimgadQPYjsElpf/Io32i+BgAyPCcTqcDwFoA64d+zgdPFRjJcQDvD/8IIY5oXA9RSmAAoLTjdDotAFZiMAycC2AhgAVgKEgFbQA+weD00B9gsMFv0rYkotTEAEA0xOl0lmIwDAwHguE/5wFwaFhauunBYCNfN/pPIYRXy8KIjIQBgGgCTqfTDKASQAmA/KGfWSN+j3c7H+xRiALox2CD3jviZ/TtkdtOCCF6NKmWKM0wABBNEafTacX4IWH49kwANgDWoR/LBL9PdP/w72YMNsJRAJGhHzV+DyKxxtwthOAXDJFO/X9RBLUUqu1XUAAAAABJRU5ErkJggg==;" vertex="1" parent="1">
          <mxGeometry x="-230" y="-59" width="120" height="120" as="geometry" />
        </mxCell>
        <mxCell id="jlnBKdemnhMmPyVvC5mi-3" value="" style="shape=image;aspect=fixed;image=data:image/png,iVBORw0KGgoAAAANSUhEUgAAAgAAAAIACAYAAAD0eNT6AAAABHNCSVQICAgIfAhkiAAAAAlwSFlzAAAN1wAADdcBQiibeAAAABl0RVh0U29mdHdhcmUAd3d3Lmlua3NjYXBlLm9yZ5vuPBoAADh4SURBVHja7d0HcFR3nuDxscfeMLUzt57du9mqnbm7vZvdmqnbUHt1s3c3c7d7ezeWwNgG7LHIWQKUydGEAYMDBoPDDLYxyWBsoshZnZRzQp0kRJBAVgCEUkvqcO8vSy6MsUHS/71+7/VXVd8qB+j+v7/U7/dRx++EQqHvEA2mOfNf+ZFSrNIGpb1K6UoupRalEBFJq6XvtpXed1vb0Hfb+xHnIhpsbAINdOj/VGmBUqZSgBMzUVgL9N0WxW3yp5yjCACQGoP/V0oOTrhEuk7cRn/FOYsAAMkY/D9XOsKJlchQidvszzmHEQCgwQz+7yltVfJzMiUyZP6+2/D3OKcRAKBHHf4/USrmBEpkisRt+Sec2wgA0MOG/y+V6jlpEpkqcZv+Jec4AgD0TcN/slIXJ0siUyZu25M51xEAoPuH/3Be1kcUES8bHM45jwAA9Q//nynd4eRIFBGJ2/rPOPcRm8Dwf0rJy0mRKKISt/mnOAcCAIrc4f+Y0nlOhkQRmbjtP8a5EABQZAJgLCdBoohuLOdCAECRN/yfVKrmBEgU0YlzwJOcEwEARRYAUjj5EZFSMudEAECRM/y/r9TAiY+I+s4F3+fcCAAoMgCQykmPiO4plXMjAKDIAICFEx4R3ZOFcyMAIPMP/x/yCX9E9IBPDvwh50gAQOYGwCROdkT0gCZxjgQAZG4AHORER0QP6CDnSABA5gYAH/VLRA/8yGDOkQCAzDv8n+AT/4joWz4p8AnOlQCAzAmAH3OSI6Jv6cecKwEAmRMAv+AER0Tf0i84VwIAMicARnKCI6JvaSTnSgBA5gRAHCe4rz7mOTthmXfipCRHzJhZ1umxC4qS5/y2JVzrSUxedXPKtHk5v3kpzvLCi9OtZkockzg2cYz83Om6OM6VAIDMCYDZnOBeCSlD/s7zIyc7oqJealMK3VcwOnqMO3bmwmJt1rM2OG58gi06+qX6B6zFlIljFccsjp2fR901m3MlACAAYMqmzZif/4jDNjh69FRr6tw17WqtJSFpxbXhw8cWR8rgvz9x7GIPGLoAgAAAAQBVmzJtbvZAh9Qzz4wrVOM31aSU1Q0KRJojdfjfc29As9gLBi8AIABAAECVklJXNQ524I6bIO6ulrueZ5+dkBvpw78/sRcMXgBAAIAAgCqNGDExewhDqk3mXdWTJqdkMPi/mtgThi8AIABAAED6k/6GOqDEqwRkreeZZ8aVMPTvfz7AuGKGLwAgAEAAQGri5X1Dv5t6YrasZ/0rl3eXof+17vKqAABAAIAAgNTEb+9Df7JajJSHAGYnvlzDsH9wYm8YwACAAAABAGmJl/NJGFA+Gb+hzohbVMywf3BibxjAAIAAAAEAaY2fmGQf6nAaNnxspZxXI6xuZtg/OLE3DGAAQACAAIC0ZsYvcw11OI0cOUXaSwGjomJqGfhfez+A6wxfAEAAgACA1FLnre35hrf9feQmTEx2SHsPgOcmZjH073uSpbInDF8AQACAAID0xo6Ptw367v9hMW4FEd2y1hKf+PJl5TfeDgb/l7/9d4g9YfgCAAIABABU+dCdQb7vftfshGVu6SAZN9vK8P8isRcMXgBAAIAAgGolJK+8Ll7ON4Dh5P/iU+vUAcmIZydkR/rwF3vA6/8BAAEAAgCqlzJnTfuoUVPFwwHBh9ztXz1z9tJLaq9nwsTkDAUldyLvbv+YOxMmpTgYuACAAAABAE2bMXNRyajRU2zDh48p7388Xtw7IN7xT9wlnTJ3badWa0lMXlX/4m9iLSNGjCtQ1tFk4sHfJI5RHGtiyqp6fg4BAAEAAgBhf5VA8pzftujokws/T0heWWumxDHxswYACAAQACAiAEAAgAAAEQEAAgAEAIgIABAAIABARACAAAABACICAAQACAAQEQAgAEAAgIgAAAEAAgBEBAAIAAAAAEBEAIAAAAAgIgIAAIAAABERAAAABACICAAQACAAQEQAgAAAAQAiAgAEAAgAEBEAIABAAICIAAABAAIARAQACAAQACAiAEAAgAAAEQEAAgAEAIgIABAAIABARACAAAABACICAAQACAAQEQAgAEAAgIgAAAEAAgBEBAAIAJA8ACS+9nFBwuYjGUSkj8RtEgAQACDVARC7v6JkxhFviIj0kbhNAgACAAQAiAAAACAAQACACAAAAAIAAAAAEAEAAEAAAAAAACIAAAAAAAEAAEAEADhfAgACAACACAAQACAAAACIAAABAAIARAQACAAQACAiAEAAgAAAEQEAAgAEAIgIABAAIABARACAAAABACICAAQACAAQEQAgAEAAgIgAAAEAAgBEBAAIABAAIAIAAIAAAAEAIgAAAAgAEAAgAgAAgAAAAAAARAAAABAAAAAAgAgAAAAAQAAAABABAM6VAIAAAAAgAgAEAAgAAAAiAEAAgAAAJ10iAEAAgAAAEQEAAgAEAIgIABAAIABARACAAAABACICAAQACAAQEQAgAEAAgIgAAAEAAgBEBAAIABAAICIAQACAzA2AWWmuruRj5S16KS7NE9DLCT/xwKW25P3KunSQWIte9mV6mjcw8ZinRS9NTfN2AQACAAQAHmHgn8zeYb9avsrR5Ul2h6rie5RCOqqt3T2nzF26zrrDeiRXy8G2/OPcq3krN1uakhfnBuISboZilfXoKLEmsTaxRrFWLffmf1src/+itMT6B+6isu9UFbYphXRUzxOeIveflZc4/iG7wj5NJRAAAAIAZFgArD9rdylD36Ozgf+tNVQuyZ57vLRJ1d/sjniD59ZtsylDtl1vQ/9baj+37kObWLuaezP+uKfp+5XF2Tob+N+aggHPc2ddLgBAAIAAgNK5HGXAVcV3G2n49xesSmh668L5MjUGXPxBZ8fdhPlFBhr8X0msXRyDGnsTfcFZ9lhVYZORhv89df9tTrkNABAAoIgGwGvnrJU6vKt/QAW8iXWJRy+1yh5yzsXrrUYd/v2JY5C9L5OPelof9xbWGXT4f/nQwIhzrkoAQACAIhIAs9Jcvm5vstfIw7+/K+Wr7TKH3Jb3z5UqAzRgdACIYxDHInNv/ry8xG7w4d/bd72F3qlpXh8AIABAEQeAvrv+Q2ZpzZkMr6wh1zk7tdIEw783cSyy9mXkGZfXDMO/P1kPBQAAAgBkKADUXXo5w0wAOJW93S7rsX9lcPaYBQDiWGQ9F+DvsyvsZgLAn14qzgAABAAo4gDQ4026bCYAiJcvytiXNz+8WG6i4d/bhm0XK2TsjXg5nZkA8F1vYTUAIABAEQWAhKOVbcrQDJgJAF2eFLeMk/mZ9R/ZzAYAcUwy9ka8pl7NgfyH7jzfX+elX/v1hWPlf591vvoHlTmtKiMgMOWopw0AEACgiAHA/BPFDWYa/iK/N7FWxpDLXP2u1WwAEMckY28e9xbWyhzAf1Ga0bhmxwf2a3MX5AXiEpoftPZgbHzrncTU8u1b3rL+Xfb5y7IRMO6EpwEAEAAgAAAAAIAGAPiF44xHDP3BvNKiPT7ZPf3wvlwAQACAAAAAAAAGAcBfFtvrS5ctd8h4iWVz0pzSf7acrAQABAAIAAAAAKBjAIjH9QNxCZ9LPrZu8RACACAAQAAAAAAAHQJg+e6PMpR1+NQ6votr11of9xYEAAABAAIAAAAA6AQA8z7ZmanFMaYrCAAABAAIAAAAAKADAPxL+olLyvV3anWca7cP/OEAAEAAgAAAAAAAEgHw52WZzf64hHqNj7X7Xy+eqAAABAAIAAAAABAmAIjH5cNxrLeTUssAAAEAAgAAAACEAQA/zbdcV/NJfw9r5sG9OQCAAAABAAAAADQGQNHylx3h/QTEpCoAQACAAAAAAAAaAuBJT353MC7+TriPWbzbIAAgAEAAAAAAAI0A8NKJg4V6OOa9m960AAACAAQAAAAA0AgA9tW/1cWnKd5NSKkEAAQACAAAAACgEQCakueU6OS4fQCAAAABAAAAADQCgG9W0mW9HPe/K8tsBgAEAAgAAAAAoAEAgrHxd/Vy3P/dftoNAAgAEAAAAABAZQCID+TR03GPOnW4GAAQACAAAAAAgAb3AATiEpr1ctz/mHmuCgAQACAAAAAAgAYA6Jyd5NXLcf/ppewWAEAAgAAAAAAAGgCgPnVeoU6Ou41XARAAIAAAAACARgA4+vprFj0cc0PK3CIAQACAAAAAAAAaAeBf0k9c0sMxb976rg0AEAAgAAAAAIBGAHisqjDoj0uoD/cx/1WBtQ4AEAAgAAAAAICGnwZ44tX1YX0YoDF5bjGfBkgAgAAAAAAAGgPgqYqsO8G4+NvhOt7/e/F4BQAgAEAAAAAAAI0BIPrgnS1h2ceqBYuzH3WNAIAAAAEAAAAAJAPgD915vrb4ZJeWxxmMS7j113np1wAAAQACAAAAAIQJACLxRLxAXEKjRsfZ8+LJg0UDWR8AIABAAAAAAAAVACAadu5ombKGLr287A8AEAAgAAAAAIAGABANP5dWGohLaFLp+LrXf7TVPph1AQACAAQAAAAAUBEAov9cYKltj092yzwu8cFDI08fLh7smgAAAQACAAAAAKgMANEfufI6d2x5yxqMi78zxGPy561Yaf/LYnv9UNYDAAgAEAAAAABAAwD092flmbfOrltnHcQTBNvdi5Zk/UPWuWoZ6wAABAAIAAAAAKAhAPp73FsQEE8SFBhoTppT2jUr8Yr4FL++dXf1zEysa0lMrShe/rIj9tAnOX/syu2Qef0AgAAARRwAZqW5fMrQ7DYTADrcqRUyhtzRN3Y7zAYAcUwy9uYP3EUVsgfwg1Jj0H9D3VPTvD4AQACAIgYAIp8nxWkmAHhKX7HJ2JdXdjjcZgOAOCYZe/Oj0hKbRoNZk57wFDll7AsAIABAhgLAlfLVdjMB4FDG3gwZ+xJ32N2jDM0OEwGgQxyTjL35bxkVGWYCwJ+Xl9gBAAEAijgAfOb4NNNEAOhacjJfynMARHcSFxSYBQDiWGTtS8xJt3gOQJdZAPBPjkuZAIAAAEUcAGKPeIN3XfOLzACA3ILNFllDTrRyd06NSe4F6BDHInNv/lNBmcUMw/+PXEVFyvEEAQABAIo4AIjEb83KAG018vAXz2WIS5NzF/e9Wdf83vCvBhDHIHtfpqV5e570FDkNDoBWcW+GrD0BAAQAyHAAEH1kPZoXrEpoNuLw7/Iku1eckvsb7pcn9cOegHfhWpsySIMGHP5BsXZxDGrszYun3DVPeIrcRhz+j1UVNv+ztTJP6s8KACAAQEYEgGje8ZKGJufiHAMNf39x0ZuWWWmuLjUG3L1t/d3JwkBcYp1Rhr9Yq1iz2vsyLc3b9e+LSsXDAX6jDP8/cRbnjDs+9Nf9AwACAGQaAPS35cLZEkf+e9b6S8uyerxJNcGqhAa95POkuMQrF85kf2RbdTqrWu0Bd29JByru7tv0WVb50tetdxPmFwXiEm4G45R16SCxFrEmsTaxRrFWLfdm9GlX9d9ll9vEM+qf8BS5lN+wG/TS497Cmn9zqTjrb/LLrFEXnKrdbgAAAQAyPACICAAQACAAQEQAgAAAAQAiAgAEAAgAEBEAIABAAIAIAAAAAgAEAIgAAAAgAEAAgAgAAAACAAAAABABAAAAANgEAAAAiAAAAAAABAAAABEAIABAAAAAEAEAAgAEAAAAEQAgAEAAgIgAAAEAAgBEBAAIABAAICIAQACAAAARAQACAAQAiAgAEAAgANB/Mktzd889k+Fc4/jMsT5rl00vrbQdyUo+mX9FWWMwXCf6aftKb41780jhiws2216Yt1EXibWINYm1hW0AHvEEXz6UeeXTT3dmpX+y0aaXju3b6lh/8KJz5hFXNwAgAEAA4BtaeM5Suu3SyvKdziU+pZCOa9lati478URRnSYD7pC7Z3TSekv0sLHXoqJeCuk5sUaxVrFmLfZm8aHcuobds7KDO19qCe18KaTjfB27JpVvPnCyFAAQACAA0FfcUWf7lsItVmWwBnQ++O/v7tqMfXY1B9ykD6ze6BETK/U++L8GAWXNYu1q7s2Jfe/ZlcF6V+eD//4Crj2LbfGHK9sBAAEAinAAeALbKlaVGmzwf6VN+b+zqDL837e4lWHqM9rwvyefOAY19qZkzwqLwQb/V2rbNbk0VvnZBwAEAChiAfBq9k6rkYd/X/75Z+0Vsu/2jx4xwWng4d93T8AEp+yHAzYcOFuhDFG/kQEgsn6ywQoACABQRAIg+VRejTI8O0wAgND2yuVVcWkun6wT+qiEtRajD//+xLHI2pdZR5y+7p3jqow+/PvqWHkwowYAEACgiAPAxvzfW8ww/PtbcvFsgaxBFxU95qZZACCORda+bN1/qMAkw7+34r2rLACAAABFHAA+KF9TYCYAvJH7oZST+dQ9hZ+bZvj3JY5Jxt5k711nMRMAbu+ang8ACABQxAFgp3Npk5kA8H7ZK7ky9mXsa5/lmQ0A4phk7E3T7rhcMwEguDOmCQAQAKCIAsDsY+XNag3iNNfCmmz3vOxKzxzbdW+ytdGbZL/iSbGUeebYHe55eZ86F6sCjx2Vy67KOJmPTn3DajYAiGOSsTf+nWOvmgkAojmHS5oBAAEAihgAxB8vbZA5fE+5FjqVYW/xV8VXh6riQw8p0FWVUOr2pFoPuBbdlAiAWikASH7VfABQjkkOAMbUmg0A8w8VNgAAAgAEAAbYUeW3/bvexOxHGPrfVGetN9m6z7n4NgAAAAAAAAAAAgA6B8Bu55KeG8rgVgZ4zxCG/73dLnbPdQAAAAAAOFcCAAIAOgWA8tv6rc6qhGJJg/8r1Suo2OVc4gcAAAAAEAAgAKAjABxyLaoNVMVfUWP499dRlVD4sXNJJwAAAACAAAABAB0AYK9zcZu/KsGj5vDv7443MRMAAAAAQACAAECYAbDLuSTQ5k3M1WL493fZk2IBAAAAABAAIAAQRgBUelKtWg7/voJnXQvKAQAAAAAEAAgAhAEAnzgX3w1WxTeHAQAhX1VCqWEAMHxcR9SEBSVRqe9Yo1YfzIh67Uy5UsUQK++9LHGZ4rLFdQAAAEAAgACAFgC45kmxhGP495fhnperewBMWlz09IYLtVFvpofUrPc6lOsCAACAAAABAFUB8LFziU8Zwq3hBMCj3gsQFgAMG+uLenmfXRnOQbWH/z0Fe69TXDcAAAAEAAgAqAEA8d794Rz+/W8d/CifHxAOADy9dJdVw8H/1XsDxHUDAABAAIAAgBoAEB/kowMAhEo8cxx6A8DT4+eXKoM4EC4AiOvuXQMAAAAEAAgAyAZAsCr+hh4A0OJNzNIVAKJjglEbLlwN4/D/IrEGsRYAAAAIABAAkAWA3c4l3eKleHoAQHdVQoWuAPDCrJqwD//+xFoAAAAgAEAAQBYADroW1elh+IuCVfF1egLA0zNfydQLAHrXAgAAAAEAAgCyAHDOtaBcLwBQ6lLWFNQNAML45L/BPBkQAAAAAgAEAB4ZAOddC8p0BIBuPQEgavke3QCgdy0AAAAQACAAIAsAh1yLruvoIYAbunoOwKxXM3QDALEWAAAACAAQAJD4JMAuHT0JsFJXAPhNfLVuACDWAgAAAAEAAgCSXwZYrwcA3PUmZuvsfQACURsu1OngZYB1vWsBAACAAAABAJkAaPYmOfQAgHLPHLvu3glw8pLCsANArIE3AgIABAAIAMgGQJZ7Xo4OABDc71pUr8u3Al7xqS1sz/4X181bAQMAAgAEANQAwB7n4nZlALfr/U2AwvZhQMPHt0X99nCW5gAQ1ymuGwAAAAIABADU+jjgG95kazgBkOuel6X3jwOOnrE6WxnMjRoM/8be6+LjgAEAAQACAGoDYJ9z8S1lELeE6bf/S4+6znACoLcRE+9ETV+VE714uyVq/YnCqDcuXH96w4XaoSQuQ1xW72Uql917HYNYGwAAAAQACAAMGACiKk+qJRwAuOieX2wYAOg4AAAACAAQABgUAHY7l/R0ViUUazn867zJ1oGsEQAAAABAAIAAgGQAiD51Lm4OVMVf02L4t3sT83c5lwQAAAAAAAQACACEGQCi466F3mBVfIPa7/r3iXNxy0DXBgAAAAAgAEAAQCUA9H9McE9VgkuN4d/iTcz62Lm4YzDrAgAAAAAQACAAoCIA+t4foO2ONzFT4vD3iScaDmVNAAAAAAACAAQAVAbAvR8Z3FWVMJSPDQ7c9iZlHHItqh3qWgAAAAAABAAIAGgEgP7s7vn54nMDglXxzY8y+ANV8VfEs/xPuBZ6ZK0BAAAAAEAAgADAQ5p9vKxJJgD62+Vc4r/gWlBS7plju+JJsTR6k+zicf3PvUm2auXfSzxzHOKJhGpctwKAa1IAkPq6+QCgHJMcAIy9ZjYAzD1c3AQACABQxABAtNO59JYagzhcvV++Nk/Gvoxdvy/XbAAQxyRjb27tjs0z0/AP7oy5JWNfAAABADIUAD4s/22hmQCwIfcDi4x9mfpx/k2zAUAck4y9ydu71mImALTsmlYIAAgAUMQBYFP+e1YzAWDpxdP5MvZFFBUd87lpAKAci6x9+XD/gXwzAaB0zwoLACAAQBEHgDmns8UT8LrMMPx3VC67GnfU2S5r0I2MW2ExCwDEscjal/jDle3+nWOvmgQAXWsPWjwAgAAARRwAROJucxMAILjo/EVpeyKaftDpix4+rsrow18cgzgWmXvz9v5jJcrwDBodALl710qDEQAgAECGA0Bsmrvno0srnEYGwJbCzTaZA66/ie+erVCGqN/AAPCLY1Bjb9x7FtqMPPx9uyY44464ewAAAQCKWACIZh2ruPNeyRsOAw7/zteyd1hjj3gCagw50YR3Tpcrv0VXG/A3/2qxdrX2RRmeAfsnr1uVYdpptOF//ePkjOTDZXdk7gcAIABAhgRAf8vST+Vvr1xebYDB3/NhxeqilFO51WoNuPseDuh8fsZya1RUzG39D/+Y22KtYs1a7M2qg47qu7umFimDtUfvg79n57jqbfv356mxDwCAAAAZGgBfvknQsYpbSy6eLXgjd5tFvFJAL63P2m2df85aHpfm0mS4fT1PcPL2zJqYVdszR85aZXk+7mWrHhJrEWsSaxNrDMfezD7i7Nx44HT5hU82Wcv2vKybsvaut2zdf6gg9XDpLTWPHwAQACBTAICIAAABAAIARAQACAAQACAiAEAAgAAAEQEAAgAEAIgAAAAgAEAAgAgAAAACAAQAiAAAACAAAAAAABEAAAAAgAAAACACAAAAABAAAABEAIAAAAEAAEAEAAgAEAAAAEQAgAAAAQAiAgAEAAgAEBEAIABAAICIAAABAAIARAQACAAQACAiAEAAgCIeAJM/q7z80vbCjOfey7QO22Qtjd5oceul4W/Z8kf+PtsyZldxztSDrgYtT/Cz0lxdWy6cLbHkbrXWXXo5w+dJqezypLj1kFiLWJNYm1ijWKuWezPvdE3D7uKGnOIbbZbbnT35Xf6gWy+1dflL3Y0d1sOXmjJWXrx6GQAQACAAcF/TDrnvPvtOhj3qzfSQQWp/4cM8q7L2gNoD7vVzlspuT7I3VBUfMkJirWLNqv/Wm+YNpFffsSk/2+0hg3zV3PbZk05U3wUABAAIACiN31NWErUxvc5Aw//LxL0UU/Y761QZcEe8weKiNy3KUO0xyvC/px6xdnEMauzN4nNX6tq6A6UhA34FgsG6t7NvlAAAAgAU0QCYesBVrwzS20Yc/vcgoEyNewJOZW+3G3DwfyVxDGr85t/eHSgLGfgrGArdXnCmph4AEACgiAXA8M22XCMP//5e+KD34QBpQ27JyfxaZYC2Gh0A4hjEscjcG2vNHWvIBF/NHT25AIAAAEUkAMST6cww/PvqmHrAdVPWCb3JuTjXBMO/N3EssvZl4Zmam8rPckfIJF/iyYsAgAAARRwAnn3XUE/6e2gxO4oyZexLXJrHrwzONrMAQByLOCYZe7O/ojEzZKKv6uZOGwAgAEARB4DoTZZKMwFAvHRRxr6sOZPpNdHw700ck4y9cTZ2WM0EgM6eQCUAIABAEQWA6Yc93crQ9JkJAH1PBhzyyfxw5p4MswFAHJOMvTH6k/8e8OWbebSqGwAQAKCIAcDUA64GMw3/3jamS3myW2b+u1azAUAck4y98QeDtSYDQGj+6ZoGAEAAgAAAAAAAAAAAEAAgAAAAAAAAAAAEAAgAAAAAAAAAAAEAAgAAAAAAAABAAIAAAAAAAAAAABAAIAAAAAAAAAAABAAIAAAAAAAAAAABAABgBgBEb7QEZu3MvZy6t8A91KZsy64FABECgIbG2lD1ZfeQu153ORQMBgAAAQACABoAYNIHWTcKapqtdzu7S5RjapP5m1gwGGpubPXlnb900/L8Fls7ADAJALq62kPbdlpCC5blheISmkOxyppkFRffptwoSkJvvW0NNTXfAAAEAAgAqACAj7NqHMFQqEWLu2V7/MEryw+VlgIAgwOgvKI0NDvpitSh/40ltITSjjsAAAEAAgCSABD9Znrw5p2O7DA8PBs4XlJrBQAGBcDH+6zKYA5oM/zvaemK7FAwGAQABAAIAAwRAEcKr9vC+Bytnrn7Cp0AwGAA8FY7lWHco/nw7+/T/TYAQACAAMAQABC3I7dGWXt7OJ+l3dUT8I54y+oDAAYBQE+PLxSf4g3b8P+i9tCNGzUAgAAAAYBBAuBKU1uGHl6qtSe7xg4ADAKAtOP2MA//L1q5JgMAEAAgADBIAHT7AzV6AIDrZgsAMAoA1r2uDwDMTuIeAAIABAAGA4DR79jvilfn6QEAHd3+SgBgEAAkzqnUBQBi44Ohjs67AIAAAAGAAQJgyYGS8pB+vnzi1QgAQOcAEM++j4336QQAodClynIAQACAAMAAASDe9Ecv078nELzKPQAGuQdgVvJV3QDgEd4cCAAQACAA8ICUX+ga9QCA2lvtWQDAIABYtjpLF8M/LuGRfnYBAAEAAgAPqKnVl68HAJwpv2EFAAYBwI6PrboAwPyl+QCAAAABgEECYMt5V064h38wFGqd/GF2HQAwCAAaG+uU375bww4Aqz0HABAAIAAwhHcCDPd7Aex9lPcAAAD6eifAI8fsRngPAABAAIAAwLf04ruO24Fg8GY4hr/4dEA+C8CgnwUgPv0vLI/9J94MtbXdBgAEAAgASPg0wPFbM+sb7nbmajj7A3mXm6yP9BbAAECfABBvCbzlHW0/EGjRstzQ7dv1A/lBAwAEAAgAPELbHdUZPV+8O6BabxDU097VUyHeg2DA6wMA+vs4YPElXoufNLdCxQ8HCoZmJdeETp4e1ENVAIAAAAGAAfTCO/aW1WllxUeLaq3nKm4Ouc/yrtoWflZc8exma+eg1wUA9AmA/q/u7s6Q010ROnjEFtq+yzrkPvnMGioqKQ61t7cMRZwAgAAAAQCjBwD0DQCdfgEAAgAEAAAAAAAAAIAAAAEAAAAAAAAAIABAAAAAAAAAAAAIABAAAAAAAAAAAAIABAAAAAAAAACAAAABAAAAAAAAACAAQAAAAAAAAAAACAAAAD0AYNohd6syNINmAkD0RotXxpA7l7PNZjYAiGOSsTfd/qDXZPM/mHi8uhUAEACgiAGASBmYV8wEgBFvOxwy9uWtC+fLzAYAcUwy9uZ6i89hpunfEwhekbEvAIAAABkKAM9ssWeZCQAvbsuX8ltuwtHKNmVo+k0EAL84Jhl7c9Z722YmANxs7coEAAQAKOIA8MIHeVYzAWDivgqnjH0RdXmS3WYBgDgWWfuy3nbdaSYAWC7fsQIAAgAUcQCYfsjTFr3RctUMw1/cmyFryIk+sBzPNwsAxLHI3Jv61u4sMwx/fyB4NeF4dRsAIABAEQcA0fg9ZSUmeDJg47SD7maZQ050tXyVw+jDXxyD7H2Zc+pyczAYajT6k//ezr4h7XYEAAgAkOEAIBq1NcdiYAS0j91dkid7yImSj1W0+DwpLqMOf7F2cQxq7M22gvo85We63ajDP7+21SJzPwAAAQAyJAD67gkojt5ouWak4T/sLWvxlP3Oa2oMuP5mprm78wvfsigDtdtAw793zWLtau7NsvNXrt3t8hcb7G7/a+/m3CiWvRcAgAAAGRYAfc8JaB/9fq71mS32nKiN6XU6HPp+8Vr/EW87Ml7aXpihrDmo5oC7t3Vn7e7Kkletbe65JcqAbdXh0G8VaxNrFGvVal9ile/BoUtNGddbujL63iPAr7ehHwgG6xrbu3McV1qssh7zBwAEAMhUAPjamwUddN9SfsOu1UsCKFoNtm8fep7AohOFN5aezK/VQ2ItYk162BtlwLYvPXelVi+lnrx8S5OfCQBAAIDMBAAiAgAEAAgAEBEAIABAAICIAAABAAIARAAAABAAIABABAAAAAEAAgBEAAAAEAAAAACACAAAAGITAAAAIAIAAAAAEAAAAEQAgAAAAQAAQAQACAAQAAAARACAAAABACICAAQACAAQEQAgAEAAgIgAAAEAAgBEBAAIABAAICIAQACAAAARAQACAAQAiAgAEAAgAEBEAIAAAAEAIgIABAAIABABAABAAIAAABEAAAAEAAgAEAEAAEAAAAAAACIAAAAIAAAAAEAEAAAAACAAAABUbMqO7KtjXtmbM/G9sxXTDzg7w7mW1JOXm7fm3SwQiX8O51pmH6vq3OCordhd3JCz/PzVq/ysAAACAAQADN+k319wDh89vSA6OuZOVNRLoXvqiX5mvPvFBW/ZZhz2BLVYS8rJy7cv3+q0+4PB2tB9X+K/if8n/owmA+uIN3i+6ratyx90K1ffc+9agqHQnTud/oJX7ded/AwBAAIABAAM1fRD7p6R8WssYtDfN/i/1rDnpxZP2ZlzXc31bCuozwsEQ/Whh3yJPyP+rJprWXruyvXWLn9x6OFfPfl1rZa4tKoefqYAAAEAAgD6T/mNfvioaYUPG/xfLaZ18jZ7tRrrOaf8ph0a4Jf4O2qsZdXFa9XKxbcOZC0tPn+huMeAny0AQACAAICuE3frD2z4f1H0iIkVMw67/TLXsvLi1Rrle98RGvhXh/i7MtcSl+b1d/YEKgaxltB5lUACAAAAACAAAACkNHl75hXlt/n2wQBANCppvUXaUEjzBjq6A+WhQX6JvysuQ9Z6sq7dtYQG/9X+8oWrV/gZAwAEAAgA6LKRsS9bBzv8e4uOaZK1lo2ZdeWhIX4pl1Emaz3BYKhpKGspr2+38jMGAAgAEADQZcNHTisaEgCUZD0hcDCP/T/grvd0WU/8G+pa7vr8RfyMAQACAAQAdNkDXu434GLW7MqSsZbrLT7HUIdubUuXlMfePyltyBrqWsTLA/kZAwAEACiMAHjx7fSTz72XaaP72nju/FCHv2j41OWnZKyn/dFeavetX21d/hIZa8msbj4VkvA1dWfBeX7Wvp64TQIAAgCkOgCGv3GuJOrN9BA9oOiYxiEjYO67OTLW4qkf0pPuer9cN1vsMtby1llXzpDvAQgGG/kZe3DiNgkACAAQAAhnz03NHzIA1h2rl7GWT3OvWoc6dPflXpECgPFbM+uHupamVl8+P2MAgAAAAQB9NmmRZWivAhhzQ9Za5u4rrBzq0FUuwylrPYFA8MZQ1pLhabDwMwYACAAQANBn645/HhUVc2vQAJj9ml3mehpbfXmDHbiNkn/j/iTnin3wd/+Hbo3bmvk5P2MAgAAAAQD9lrQpc1DD/7kpBbLXMvH9rHrx7PnBPONe+bs3Za/nVltXwWAA8KGtKpOfLQBAAIAAgP4bPXOACIj5PGptWp0aa/nA6s1Uvv/+Acxbv/g7aqxl8ofZdYFg8POBDP+rTe0MfwBAAIAAgHGKnrVefCZA28OG/9OjYrOi1p9sVnMtCz4rutTtD1Q/bNiKPyP+rJpreek9R3PtrfZHeV+Ats/yrtr4WQIABAAIABivNUeuRb042xE1bOxlZdgH7vmNvyla3OWfsiVLq7U8u9na6fA0WNp8PeIDee79gKAO8d/E/xN/Rqv1vHfRk9Xc1lVw31sEBxSEXK5uaHVM/yjnGj9DAIAAAAEA4/f6mdaopbvL1bqrf0ADY5OlJ3lPgVsk/jnc6xEPDSw5UFI+6m1bKz8rAIAAAAEAIgIABAAIABARACAAQACAiAAAAQACAEQAAAAQACAAQAQAAAABAAIARAAAABAAAAAAgAgAAAAAwCYAAABABAAAAAAgAAAAiAAAAQACAACACAAQACAAAACIAAABAAIARAQACAAQACAiAEAAgAAAEQEAAgAEAIgIABAAIABARACAAAABgPv69ab0rn/dYmnRS09vTA/o5YQ/bJO1TalFJ7XpZl/evBh44fUzLXppxIYLXQCAAAABgEcY+H91Ksv+/cI8x3fdBe7vVBX2KIV0VNuTzoKyp3Jyrf/lQEauloNtxBbH1XEfl1qmHnDlzjjivakU0lk3xdrEGsVatdybjSs+yi1NWWltnZVaFoqNb1MK6age38wkd1XSUse+xVvsz6gEAgBAAIAMC4B/2m5zKUPfo7OB/639cWl+9v95x9Kk8oALxuwosikDtl2HQ/+bao/ZWWQTa1dzb2JeO9V0M35Bts4G/rfmi0vypK494AIABAAIACj9hzNZNmWgdhtp+Pf3mLew6b9+bC9TY8BFb7R0TDvoLjLQ4P9KYu3iGNTYm2W//aQsGJvQZKThf0/dhxa9ZQMABAAoogHwix32Sh3e1T9QBNT9382WVtlDbuInFVajDv/+xDHI3pdRb5xt9ccl1Bl0+H/50MC8NfsrAQABAIpIAPx6U7rvcXeh18jDv78fFOTZZQ6553+XVaoM0IDRASCOQRyLzL3xJC2zG3z499YVl+QdseGCDwAQAKCIA0DfXf8hs/Q/ttm8sobc9EOeShMM/97Escjal8RXDnnNMPz7k/VQAAAgAECGAsCfFOdnmAkAf3U6yy7rsX9lcPaYBQDiWGQ9F+DTxVvsZgLAlcTFGQCAAABFHAAe9xReNhMAflCY55By9/97WeUmGv69KcdUIWNvvElLHWYCQHdcYjUAIABAEQWA/7fZ0qYMzYCZACDeu0DKy9u+eNmfasM49og3OO94ScOrZ61Okfhn8d/UvE5xTDL2Rrym3kwAUAo8/8a5NgBAAIAiBgD/8q61wUzDv+/VALUyhtzY3SVSn/0/M83dvTX9ZKG3bK3N7028GqqK71YK3Ve3+H/iz4g/K/6OzDWIY5KxN/64hFqTASA07rWTDQCAAAABAAAgDQCJRy+1FRRusgSr4u88YOB/a+LviL8rLgMAAAACAAQAAIABABB7xBM4l7PNFqxKaBzo4P86BBIaxWWJywQAAIAAAAEAAKBTAIjf2Juci3OGOvjvT1zmUO4NAAAAgAAAAQAAoBIAlpzMr+3yJLtlD//+xGWL6wAAAIAAAAEAAKATAKQeL2vue4JfSM3EdYjrAgAAgAAAAQAAEGYAiGfst7rnFas9/PsT1zXQVwkAAABAAIAAAACQDAB36TqrVsO/P3GdAAAAEAAgAAAAwgSANWcyvMpA9msNAHGd4roBAAAgAEAAAACEAQC3nQvzwzD8exPXDQAAAAEAAgAAQGMAbL5wrjRcw78/sQYAAAAIABAAAAAaAsBdus4WbgCINQAAAEAAgAAAANAQAH5v4vVwA0CsAQAAAAIABAAAgEYA6HvyX0gPPcqTAQEAACAAQAAAAEgAwGeOTzP1AgCxFgAAAAgAEAAAABoAwJb3O6teACDWAgAAAAEAAgAAQAMAOEvW6wYAYi0AAAAQACAAAAA0AMD1ihUZegGAWAsAAAAEAAgAAAANAFBe/Lpu7gEQawEAAIAAAAEAAKABAC7mvq8bAIi1AAAAQACAAAAA0AAAe+0HsvUCALEWAAAACAAQAAAAGgBgycn8Wr0AQKwFAAAAAgAEAACARu8E2OVJdod7+Is18E6AAIAAAAEAAKAhAIqL3rSEGwBiDQAAABAAIAAAADQEwOrTWdXKEPaHEQB+sQYAAAAIABAAAAAaAkB0pXy1PVwAENf9qOsEAACAAAABAAAgEQALThTXK8O4LQwAaBPXDQAAAAEAAgAAIAwACNd7AjzKa/8BAAAgAEAAAACoCADRtYqVDq2Gv7iuga4PAAAAAgAEAACACgCYlebytbvnlKk9/MV1iOsCAACAAAABAACgAwCIEo9eam12LspTa/iLyxbXMZi1AQAAQACAAAAAUAkAotgjnoAaHxQkLlNc9mDXBQAAAAEAAgAAQEUA9Pe79FNFPk+Kc6iDX1yGuKyhrgcAAAACAAQAAIAGAPji3gBv8DPHp5mDgYD4O+LvisuQsRYAAAAIABAAAAAaAeDeFp8sqDuf84HtlnNhXpcn2ROsSmhSBn1QJP5Z/Dfx/8SfEX9W9vUDAABAAIAAQG+/3pTuU4Zmt5kA8ISroELGkPvNRwUO2QP4Qc1Mc3eLtLgucUwy9qZ9ZkqFyQDQPWLDBR8AIABAEQMA0XfdBU4zAeCp3FybjH159p0MtxZDWcvEMcnYm/LkFTYzAaBzZrJTxr4AAAIAZCgA/KAgz24mAPz1scwMGfsStTG9RxmaHSYCQIc4Jhl7s33p7zLMBABP0jI7ACAAQBEHgL9Jy8w0EQC6/tfvrVKeAyCaetBVYBYAiGORtS9TXj0mngPQZRYAfLBsayYAIABAEQcApeAfXCooMgMA/sKaY5E15EQj3nbUmORegA5xLDL3xjJvvcUMw//2rDlF0cptAAAQAKBIBEBI/NasDNBWIw//77oKnE9Luov73sbsKrYaHQDiGGTvy/ANF3vEY+dGHv7B2PhWcW+GtD0BAAQAyGgAEP3t/oy873gLmw05/N0F7l++b62RPeT6CkzcV2GbIem1+BoXFGsXx6DG3sStS6vxzUxyG3P4JzRvWLE9TyqKAAABADIiAL54XwBLwx+X5ecYaPj7/21GjuXXm9K7VBr+XzZqa07hjMPeOsMMf2WtYs1q78szGy50Zc9ZKx4O8Btl+NfHz88Z+9qpBun3igAAAgBkVAD094977CV/eTHb+r2S/KzHPYU1j3kLG/SS8tu+S7xy4T+ezrL9zw9s1WoPuHsbtsl698UP87Mm7C23TjvoFm/Ne1OpQSfdFGsSaxNrFGvVcm9mrTtSfWDRZpt4Rn3nzGRXIDahQS/1xCXW1CYszDoz/w3ritV7VbvdAAACAGR4ABARACAAQACAiAAAAQACAEQEAAgAEAAgIgBAAIAAABEAAAAEAAgAEAEAAEAAgAAAEQAAAAQAAAAAIAIAAAAAsAkAAAAQAQAAAAAIAAAAIgBAAIAAAAAgAgAEAAgAAAAiAEAAgAAAEQEAAgAEAIgIABAAIABARACAAAABACICAAQACAAQEQAgAEAAgIgAAAEAAgBEBAAIABAAICIAQACAAAARAQACAAQAiAAAACAAQACACAAAAAIABACIAAAAIAAAAAAAEQAAAMQmAAAAQAQAAAAAIADw8Ka9vLVgwqqdGUSkj8RtEgAQACDVAUBEpg0AAAACAEQEAAgAEAAgIgBAAIAAABEBAAIABACICAAQACAAQEQAgAAAAQAiAgAEAAgAEBEAIABAAICIAAABAAIARAQACAAQACAiAEAAgAAAEQEAAgAEAIgIABAAIABARACAAAABACICAAQACAAQEQAgAAAAiIgAAAAgAEDmLmXu2s6p0+fljho9xfbMM+Pzhg0b44qKeqlJJP5Z/Dfx/8SfEX+WPQMABAAIAJCBi5u1uHzEiInZyqBvUwo9Ym3i74i/yx4CAAIABADIQM1OXF797LMTcgYw9B+YuAxxWewpACAAQACAdN648Qk2ZXj3DHX431OPuEz2FgAQACAAQDosdd7anpGjptokDv6vJC5bXAd7DQAIABAAIP0UGPHs+By1hn9/4jrEdbHfAIAAAAEA0kEvvDjdqvbw709cF3sOAAgAEACgMDdxckqGVsO/P3Gd7D0AIABAAIDCVPKc1beUgXxbawCI6xTXzfcAABAAIABAYWj0C9OsYRj+vYnr5nsAAAgAEAAgjUtIWnFNGcRd4QKAuG6xBr4XAIAAAAEA0rDfvDTTEsbh35tYA98LAEAAgAAAadiwYWMuhRsAYg18LwAAAQACAKRRSSmr6pUBHAw3AMQaxFr4ngAAAgAEAEiDpkydm6OD4d+bWAvfEwBAAIAAAGnQ2PHxNr0AQKyF7wkAIABAAIA0eee/GRa9AECshe8JACAAQACANOj55yc59AIAsRa+JwCAAAABANKgUaOn6eYhALEWvicAgAAAAQDSoJgxs6x6AYBYC98TAEAAgAAAmfQDgPhgIABAAIAAAIW5mbOXVuoFAGItfE8AAAEAAgCkSWuDUVEx9eEHQEy9WAvfDwBAAIAAAGn1SoCRk+1hfwWAsga+FwCAAAABANKwaTPmF4QbAGINfC8AAAEAAgCkccOfGVsaruEvrpvvAQAgAEDGAEAcJzhzFTdrcUW4ACCum++B6YrjXAkAyJwAGMkJznw999wkzV8SKK6TvTdlIzlXAgAyJwB+wQnOfKXOXdM+bNgYl1bDX1yXuE723pT9gnMlACBzAuDHnODMWULyyrqoqJhGDV721yiuiz03bT/mXAkAyJwAeEIpwEnOtG8O5IyOjrmp1vAXly2ug702beLc8ATnSgBA5kVAPSc685aUsqp+2LAxl1S42/+SuGz22NTVc44EAGRuABzkRGfuUuau7Rz9wjTxYUE+CcPfJy5LXCZ7a/oOco4EAGRuAEziRBc5zwt47vnJ4hUCgUEM/oD4uzzeH1FN4hwJAMjcAPihkp+TXSQ9LLC6YfzEJPuIEePzHnKvgE/8GfFnxd9h7yIqcU74IedIAEDmR4CFE17EfoiQPzFlVf2s+KXOaTPm54nEPyf2Pr6/FhhGbhbOjQCAIgMAqZzwiOieUjk3AgCKDAB8X4m7eIko1Hcu+D7nRgBAkYOAFE58RKSUzDkRAFBkAeBJpWpOfkQRnTgHPMk5EQBQ5CFgLCdAoohuLOdCAECRCYDHlM5zEiSKyMRt/zHOhQCAIhcBTyl5ORkSRVTiNv8U50AAQCDgZ0p3OCkSRUTitv4zzn3EJlA/AobzSYFEEfGJf8M55xEAoPsRMFmpi5MkkSkTt+3JnOsIANA3IeCXfGQwkfk+6lfctjnHEQCghyHgJ0rFnDSJTJG4Lf+EcxsBAHpUBHxPaSufHEhk6E/4E7fh73FOIwBAg4HAz5WOcDIlMlTiNvtzzmEEAEgGBH6l5ODESqTrxG30V5yzCACQGhD4qdICpUxeNkiki5f1ZfbdJn/KOYoAAGmFgR8pxSptUNqrlK7kUmrhxEwktZa+21Z6321tQ99t70eci2iw/X8o8x7rTx5XpQAAAABJRU5ErkJggg==;" vertex="1" parent="1">
          <mxGeometry x="-270" y="110" width="200" height="200" as="geometry" />
        </mxCell>
        <mxCell id="jlnBKdemnhMmPyVvC5mi-6" value="Smart Watch" style="text;html=1;align=center;verticalAlign=middle;resizable=0;points=[];autosize=1;strokeColor=none;fillColor=none;fontStyle=1" vertex="1" parent="1">
          <mxGeometry x="-225" y="-89" width="100" height="30" as="geometry" />
        </mxCell>
        <mxCell id="jlnBKdemnhMmPyVvC5mi-7" value="Smartphone" style="text;html=1;align=center;verticalAlign=middle;resizable=0;points=[];autosize=1;strokeColor=none;fillColor=none;fontStyle=1" vertex="1" parent="1">
          <mxGeometry x="-220" y="80" width="90" height="30" as="geometry" />
        </mxCell>
        <mxCell id="jlnBKdemnhMmPyVvC5mi-8" value="&lt;b style=&quot;font-size: 16px;&quot;&gt;Devices&lt;br&gt;&lt;/b&gt;" style="text;html=1;align=center;verticalAlign=middle;resizable=0;points=[];autosize=1;strokeColor=none;fillColor=none;" vertex="1" parent="1">
          <mxGeometry x="-215" y="-120" width="80" height="30" as="geometry" />
        </mxCell>
        <mxCell id="jlnBKdemnhMmPyVvC5mi-9" value="" style="rounded=0;whiteSpace=wrap;html=1;" vertex="1" parent="1">
          <mxGeometry x="55" y="170" width="315" height="90" as="geometry" />
        </mxCell>
        <mxCell id="jlnBKdemnhMmPyVvC5mi-10" value="&lt;b style=&quot;font-size: 16px;&quot;&gt;Data Visualisation: Huawei ModelArts&lt;br&gt;&lt;/b&gt;" style="text;html=1;align=center;verticalAlign=middle;resizable=0;points=[];autosize=1;strokeColor=none;fillColor=none;" vertex="1" parent="1">
          <mxGeometry x="57.5" y="140" width="310" height="30" as="geometry" />
        </mxCell>
      </root>
    </mxGraphModel>
  </diagram>
</mxfile>
